<?xml version="1.0" standalone="no"?>
<!DOCTYPE svg PUBLIC "-//W3C//DTD SVG 20010904//EN"
 "http://www.w3.org/TR/2001/REC-SVG-20010904/DTD/svg10.dtd">
<svg version="1.0" xmlns="http://www.w3.org/2000/svg"
 width="1080.000000pt" height="1080.000000pt" viewBox="0 0 1080.000000 1080.000000"
 preserveAspectRatio="xMidYMid meet">
<metadata>
Created by potrace 1.14, written by Peter Selinger 2001-2017
</metadata>
<g transform="translate(0.000000,1080.000000) scale(0.100000,-0.100000)"
fill="#000000" stroke="none">
<path d="M0 7210 l0 -3590 28 -1 c24 0 25 -1 7 -10 -14 -6 -4 -8 32 -4 37 4
53 2 53 -6 0 -8 4 -8 13 -1 8 7 18 7 27 2 12 -8 11 -10 -5 -11 -17 -1 -16 -2
5 -9 l25 -7 -25 -11 c-24 -10 -23 -11 15 -12 22 -1 33 -4 25 -7 -8 -4 -19 -12
-25 -20 -11 -14 -79 -37 -70 -23 5 9 -38 32 -83 45 l-22 6 0 -709 0 -710 53 4
c28 2 78 6 110 9 72 5 115 -3 127 -24 6 -13 4 -17 -10 -17 -10 0 -16 5 -12 11
3 5 -2 4 -11 -4 -15 -12 -17 -11 -17 4 0 17 -1 17 -18 2 -10 -10 -24 -17 -30
-17 -7 0 -12 -8 -13 -17 0 -10 -3 -13 -5 -6 -3 7 -18 9 -40 6 -25 -4 -34 -2
-34 8 0 11 -2 11 -9 -1 -6 -8 -7 -18 -5 -22 3 -4 -2 -5 -10 -2 -11 4 -16 0
-16 -12 0 -11 -5 -26 -10 -34 -8 -12 -13 -13 -30 -3 -20 13 -20 12 -20 -1002
l0 -1015 5400 0 5400 0 -1 1583 c-1 1231 -4 1570 -13 1527 l-12 -55 -49 3
c-81 4 -269 23 -287 28 -14 4 -15 9 -6 29 6 13 14 23 17 22 3 -1 15 4 26 10
11 6 64 14 119 18 101 7 144 20 184 54 20 18 22 27 22 134 0 102 -2 116 -17
120 -17 4 -17 5 -1 6 17 1 18 187 18 3661 l0 3660 -1739 0 -1739 -1 3 -42 c4
-64 4 -65 18 -64 6 1 37 -4 67 -10 30 -6 89 -14 129 -16 63 -4 72 -3 57 8 -10
8 -38 12 -68 11 -28 -2 -72 3 -97 10 -40 12 -41 13 -10 9 20 -3 44 -2 54 2 18
6 18 7 -1 14 -13 5 -4 8 28 8 27 1 48 -4 50 -11 3 -7 39 -15 93 -20 58 -5 94
-13 104 -23 14 -14 14 -16 -7 -21 -24 -7 -30 -24 -7 -24 7 0 18 -7 22 -14 7
-12 20 -13 67 -7 48 7 56 6 42 -4 -9 -7 -26 -11 -36 -8 -11 3 -20 1 -20 -5 0
-6 -10 -12 -22 -14 -16 -3 0 -11 48 -26 39 -12 79 -22 88 -22 9 0 16 -4 16
-10 0 -5 -18 -10 -39 -10 -22 0 -43 -4 -46 -10 -3 -6 5 -10 19 -10 30 0 43
-17 19 -23 -14 -4 -13 -5 4 -6 12 0 48 -8 80 -16 38 -10 60 -12 67 -5 7 7 2
10 -15 10 -13 0 -31 5 -39 10 -11 7 -8 9 15 9 17 -1 44 -4 60 -8 28 -6 29 -7
10 -19 -20 -11 -20 -11 2 -12 12 0 27 -9 33 -20 6 -11 19 -20 30 -20 10 0 26
-8 36 -17 16 -16 15 -18 -14 -25 -23 -6 -40 -3 -67 12 -19 11 -48 20 -62 20
-26 0 -26 -1 -7 -15 19 -14 18 -14 -3 -15 -13 0 -23 -5 -23 -11 0 -6 -6 -7
-12 -2 -7 4 -50 7 -95 8 -52 0 -87 5 -95 13 -10 10 -5 11 22 7 31 -5 32 -4 11
5 -13 6 -49 9 -80 8 -31 -1 -62 1 -69 6 -6 4 -12 4 -12 -1 0 -14 83 -43 155
-55 96 -14 176 -39 169 -50 -4 -7 11 -8 42 -4 122 16 144 17 144 9 0 -6 -12
-15 -26 -21 -14 -7 -23 -16 -19 -21 12 -21 -18 -21 -97 0 -46 12 -101 23 -123
24 -22 2 -41 8 -43 14 -5 15 -56 41 -79 41 -14 0 -15 -2 -4 -9 9 -6 10 -11 2
-15 -16 -10 -4 -26 20 -26 10 0 19 -4 19 -9 0 -5 10 -12 23 -15 21 -7 21 -7 2
-16 -28 -12 -103 -12 -149 1 -49 14 -130 3 -122 -16 5 -15 -41 -28 -50 -14 -7
11 -114 12 -114 1 0 -4 16 -14 36 -21 19 -7 34 -15 31 -17 -2 -3 -16 0 -31 6
-15 5 -49 12 -75 15 -46 4 -49 3 -54 -22 -3 -14 -4 -318 -3 -675 1 -611 0
-648 -16 -648 -17 0 -18 39 -18 669 l0 668 -32 9 c-35 10 -50 34 -21 34 10 0
25 5 33 11 13 9 13 10 -2 5 -9 -3 -41 -1 -70 3 -55 9 -92 2 -48 -9 18 -5 6 -8
-40 -13 -36 -4 -97 -15 -135 -24 -81 -19 -149 -21 -169 -4 -10 9 -16 9 -21 1
-4 -6 -5 -13 -4 -14 16 -12 76 -36 91 -36 24 0 58 -18 58 -30 0 -6 -11 -10
-25 -10 -17 0 -23 -4 -19 -14 7 -17 -41 -26 -114 -21 -61 5 -81 13 -61 26 16
10 4 12 -43 9 -14 -1 -29 3 -33 9 -8 14 43 14 83 0 17 -6 43 -9 58 -7 26 3 26
4 -17 25 -47 23 -204 40 -214 22 -4 -5 5 -9 19 -9 14 0 26 -4 26 -10 0 -6 -26
-10 -59 -10 -33 0 -63 -4 -66 -10 -4 -6 -40 -7 -94 -3 -63 4 -94 2 -112 -7
-13 -8 -49 -19 -79 -25 -53 -12 -54 -12 -25 -20 17 -4 32 -11 35 -15 21 -26
90 -54 140 -56 91 -3 135 -16 134 -41 0 -17 7 -23 33 -28 18 -3 33 -10 33 -15
0 -6 0 -13 0 -17 0 -5 -12 -9 -28 -9 -15 -1 -40 -2 -57 -4 l-30 -2 33 -9 c17
-5 32 -11 32 -14 0 -8 -126 3 -153 14 -16 6 -33 8 -39 5 -7 -4 -8 -2 -4 4 8
13 -16 17 -28 5 -4 -5 -32 -8 -61 -8 -58 0 -75 -9 -57 -27 9 -9 17 -10 29 -2
18 11 113 -4 113 -18 0 -16 -44 -26 -65 -15 -23 12 -107 18 -100 7 3 -4 -11
-11 -30 -14 -31 -6 -34 -9 -25 -26 9 -17 7 -20 -10 -20 -13 0 -18 -4 -14 -11
3 -6 17 -9 30 -6 13 2 24 1 24 -4 0 -4 -13 -10 -30 -13 -16 -3 -43 -9 -60 -12
-36 -7 -39 -20 -7 -30 21 -7 21 -7 2 -15 -17 -6 -17 -8 -2 -8 20 -1 23 -17 5
-24 -7 -3 1 -6 18 -6 41 -1 97 -21 107 -38 4 -7 16 -13 25 -13 9 -1 28 -8 42
-16 l25 -15 -35 5 c-19 3 -52 10 -72 15 -22 5 -36 5 -32 0 3 -5 17 -9 32 -9
20 0 23 -3 13 -9 -26 -16 32 -24 127 -17 80 6 94 4 172 -23 47 -17 78 -31 70
-31 -9 -1 -5 -5 8 -11 42 -16 14 -32 -44 -25 -51 6 -70 -3 -43 -20 17 -10 -10
-24 -46 -24 -17 0 -37 6 -44 13 -10 10 -11 9 -6 -4 5 -14 -4 -14 -87 -4 -51 6
-108 19 -127 29 -28 15 -47 17 -130 11 -53 -4 -100 -11 -106 -15 -21 -15 -62
-19 -125 -10 -36 4 -83 5 -105 0 -22 -4 -34 -8 -26 -9 8 0 11 -4 8 -8 -4 -4
-32 -5 -62 -4 -30 1 -125 -3 -212 -9 -122 -10 -176 -10 -246 0 -48 6 -91 9
-94 6 -3 -3 9 -13 28 -21 l34 -16 -49 5 c-27 4 -76 6 -110 6 -47 1 -57 3 -43
11 9 6 27 8 40 5 12 -3 16 -3 9 0 -25 12 -1 22 41 18 l42 -5 -34 16 c-43 20
-82 20 -75 1 4 -11 0 -13 -16 -9 -15 4 -26 0 -32 -11 -5 -9 -20 -16 -33 -16
-14 0 -25 -4 -25 -10 0 -15 -69 -30 -138 -30 l-63 0 20 26 c27 35 26 40 -7 52
l-27 10 35 1 35 1 -30 19 c-36 23 -125 39 -125 22 0 -6 9 -11 21 -11 11 0 17
-4 14 -10 -3 -5 -15 -10 -26 -10 -37 0 -18 -19 26 -25 46 -7 94 -33 65 -35
-36 -3 -145 2 -150 7 -3 2 3 9 13 14 14 8 15 13 5 23 -23 22 -52 28 -180 32
-109 4 -127 3 -122 -10 4 -10 -4 -16 -25 -21 -17 -4 -31 -11 -31 -16 0 -18
-85 1 -144 33 -24 13 -106 17 -106 6 0 -5 -24 -9 -52 -10 -41 -1 -45 -2 -18
-5 19 -3 39 -9 45 -14 5 -5 32 -10 60 -10 l50 -2 -65 -10 c-36 -6 -67 -14 -70
-18 -3 -4 -49 -9 -102 -11 -54 -1 -94 -6 -90 -10 5 -5 55 -13 113 -18 57 -6
106 -15 107 -20 2 -6 22 -10 45 -10 23 0 49 -5 57 -10 17 -11 18 -11 -100 -15
-41 -1 -85 -6 -98 -10 l-22 -7 21 -19 c21 -18 21 -19 2 -19 -20 0 -63 -41 -63
-60 0 -6 -11 -15 -25 -20 -34 -13 -43 -39 -20 -56 22 -17 18 -22 -23 -30 -21
-4 -32 -3 -32 5 0 6 5 11 12 11 8 0 6 6 -5 17 -17 17 -47 15 -172 -13 -27 -6
-29 -5 -17 9 12 14 9 16 -22 21 -82 13 -102 14 -121 6 -17 -7 -15 -9 13 -9 34
-1 46 -21 12 -21 -11 0 -20 -7 -20 -15 0 -10 -11 -16 -32 -17 -54 -3 -143 4
-148 11 -11 15 -97 36 -142 35 -41 -2 -46 0 -43 17 3 14 -2 19 -21 19 -33 0
-30 20 4 21 24 0 25 1 7 9 -33 14 -69 11 -95 -10 -32 -25 -50 -25 -50 0 0 15
-7 20 -25 20 -14 0 -25 -6 -25 -14 0 -9 -8 -12 -25 -8 -27 5 -35 22 -10 22 8
0 15 4 15 10 0 5 -24 1 -52 -10 -43 -17 -66 -19 -125 -14 -52 5 -73 3 -73 -5
0 -6 11 -11 25 -11 13 0 29 -8 34 -18 7 -14 18 -17 39 -14 16 2 33 -1 36 -7 4
-6 18 -11 32 -11 13 0 24 -5 24 -11 0 -7 -9 -9 -22 -5 -13 4 -48 9 -78 12 -30
3 -62 8 -70 11 -22 9 -22 9 -61 17 -20 4 -49 6 -65 4 l-29 -4 40 -18 c53 -25
27 -31 -63 -16 -99 17 -232 29 -248 23 -8 -3 -11 -9 -8 -14 3 -5 9 -7 13 -5 4
3 13 0 21 -5 10 -6 -2 -7 -35 -3 -32 3 -61 1 -80 -7 l-30 -13 44 -4 c69 -5 92
-42 35 -56 -18 -5 -30 -1 -42 13 -9 11 -29 23 -44 26 -21 5 -27 2 -33 -14 -8
-25 -42 -35 -95 -28 -52 7 -60 -15 -16 -42 18 -12 38 -21 45 -21 6 0 11 -8 11
-18 0 -23 -99 -47 -167 -39 -48 5 -49 4 -69 -32 l-20 -38 29 -16 c16 -9 40
-17 53 -17 16 0 23 -4 18 -11 -15 -25 -140 21 -129 48 3 9 1 21 -5 28 -7 9 -3
26 14 61 28 55 57 84 85 84 14 0 18 5 14 20 -4 17 0 20 24 20 16 0 34 -5 41
-12 9 -9 15 -9 24 0 7 7 21 12 32 13 14 0 8 5 -14 12 -27 8 -31 11 -16 15 18
4 18 5 -5 18 -24 13 -24 13 -1 14 38 0 24 17 -20 23 -24 3 -54 9 -67 13 -20 6
-22 4 -16 -14 3 -12 3 -27 -2 -34 -4 -7 -8 -23 -8 -35 0 -13 -10 -29 -20 -37
-26 -20 -100 -20 -130 0 -13 8 -36 14 -52 12 l-28 -4 30 -14 30 -14 -32 -4
c-18 -2 -33 -8 -33 -13 0 -6 -15 -7 -36 -3 -26 5 -35 3 -30 -4 4 -6 13 -9 21
-5 18 6 20 -13 3 -21 -7 -3 -3 -3 9 0 18 4 20 1 16 -16 -5 -20 -33 -29 -33
-10 0 6 -9 10 -19 10 -11 0 -23 -4 -26 -10 -3 -5 -1 -10 4 -10 6 0 11 -5 11
-10 0 -6 -3 -9 -7 -8 -19 5 -78 -16 -92 -33 -14 -15 -26 -17 -84 -12 -55 5
-65 8 -56 19 6 8 20 14 30 14 11 0 18 4 17 9 -2 4 8 18 22 29 14 12 20 21 14
22 -6 0 -9 10 -7 24 4 19 16 28 55 41 57 18 110 54 102 67 -3 5 0 15 6 23 10
12 7 17 -15 25 -14 5 -31 10 -36 10 -5 0 -9 9 -9 21 0 14 10 24 30 32 35 13
40 42 9 52 -27 9 -20 24 21 47 26 13 30 18 15 18 -15 0 -17 2 -6 9 15 9 -2 14
-90 26 -36 4 -46 10 -45 23 1 12 -9 19 -34 23 -32 6 -33 6 -7 8 16 0 42 10 58
21 15 12 48 24 71 28 50 9 52 23 6 35 -43 11 -45 14 -22 33 13 10 15 17 7 20
-20 9 -3 34 23 34 37 0 29 20 -8 22 -18 0 -37 2 -43 3 -5 2 -16 3 -24 4 -7 0
-11 7 -8 15 4 10 -8 18 -39 28 -46 13 -80 38 -53 38 8 0 4 7 -8 15 -12 9 -20
21 -17 28 2 8 -6 25 -20 40 -14 15 -22 27 -17 27 9 0 8 36 -1 46 -4 3 -30 11
-60 18 l-53 13 40 7 c70 12 119 28 108 34 -5 4 -12 14 -15 22 -3 8 -38 28 -78
43 -56 22 -75 25 -86 16 -7 -6 -21 -8 -30 -5 -13 5 -14 9 -4 21 8 10 17 12 24
6 13 -11 65 8 84 32 12 14 10 19 -15 34 -17 10 -28 24 -26 31 3 6 -3 12 -12
12 -13 0 -16 6 -11 24 5 19 0 29 -16 40 -12 9 -18 16 -13 17 6 0 -11 7 -36 15
-51 15 -64 44 -20 44 24 1 25 1 7 15 -10 7 -15 18 -12 24 4 6 -11 15 -34 21
-36 10 -54 26 -60 55 -5 23 -27 44 -53 50 -32 8 -26 25 9 25 27 0 32 15 8 24
-8 3 -13 10 -9 15 3 5 -6 11 -20 13 -37 4 -33 24 4 20 17 -2 31 1 31 6 0 5
-30 12 -66 14 -51 3 -70 9 -81 24 -13 17 -12 19 11 22 39 5 31 22 -9 22 -25 0
-35 4 -35 16 0 11 5 14 18 9 20 -8 21 -8 47 -6 15 1 12 6 -15 18 -32 15 -33
17 -12 20 12 3 22 10 22 17 0 24 -45 56 -79 56 -18 0 -30 4 -27 9 3 5 26 5 52
0 26 -5 50 -7 52 -4 3 3 1 5 -5 5 -6 0 -13 9 -16 19 -2 11 -23 29 -45 40 -38
19 -58 21 -252 21 l-210 0 0 -3590z m7844 3435 c-7 -17 -20 -20 -29 -6 -3 5 3
12 12 14 10 3 19 5 20 6 1 0 0 -6 -3 -14z m-7557 -1 c-3 -3 -12 -4 -19 -1 -8
3 -5 6 6 6 11 1 17 -2 13 -5z m36 -74 c16 -19 16 -20 -3 -20 -11 0 -20 4 -20
8 0 5 -10 14 -22 20 l-23 11 25 0 c14 1 33 -8 43 -19z m7837 5 c0 -8 -4 -15
-9 -15 -13 0 -22 16 -14 24 11 11 23 6 23 -9z m-224 -10 c23 -17 38 -19 29 -4
-10 16 105 9 176 -10 111 -31 78 -42 -46 -16 -38 8 -74 10 -78 6 -5 -5 -48 0
-95 11 -113 24 -117 26 -56 27 30 1 58 -5 70 -14z m-7559 -21 c-3 -3 -12 -4
-19 -1 -8 3 -5 6 6 6 11 1 17 -2 13 -5z m98 -24 c-3 -5 -12 -10 -18 -10 -7 0
-6 4 3 10 19 12 23 12 15 0z m7765 -29 c30 -6 70 -9 89 -8 20 1 36 -3 38 -10
3 -7 -2 -13 -10 -13 -8 0 -17 -6 -20 -14 -4 -11 2 -14 28 -13 18 1 31 5 28 10
-2 4 7 7 21 7 13 0 33 3 43 6 13 4 15 3 4 -4 -8 -6 -11 -18 -7 -30 6 -17 1
-21 -34 -27 -24 -4 -46 -3 -53 3 -7 6 -34 16 -60 22 -35 9 -47 17 -47 31 0 25
-55 39 -157 39 -55 0 -83 4 -83 11 0 13 131 7 220 -10z m187 13 c-3 -3 -12 -4
-19 -1 -8 3 -5 6 6 6 11 1 17 -2 13 -5z m1073 -55 c0 -14 -26 -11 -39 5 -9 11
-6 12 14 8 14 -2 25 -8 25 -13z m-1290 -9 c0 -5 6 -10 14 -10 8 0 24 -9 37
-21 27 -23 21 -22 -33 6 -36 18 -50 35 -28 35 6 0 10 -4 10 -10z m422 -23 c5
-9 -7 -13 -51 -15 -61 -3 -111 10 -111 29 0 16 151 4 162 -14z m623 3 c-3 -5
-19 -10 -36 -10 -16 0 -29 5 -29 10 0 6 16 10 36 10 21 0 33 -4 29 -10z m-432
-7 c-7 -2 -19 -2 -25 0 -7 3 -2 5 12 5 14 0 19 -2 13 -5z m367 -19 c12 -12 10
-14 -15 -14 -38 0 -103 18 -110 31 -10 15 107 -1 125 -17z m-450 7 c0 -11 -60
-20 -80 -12 -10 3 -5 8 15 12 45 10 65 10 65 0z m387 -37 c-3 -3 -12 -4 -19
-1 -8 3 -5 6 6 6 11 1 17 -2 13 -5z m-427 -19 c8 -9 8 -15 2 -15 -18 0 -42 12
-42 21 0 14 26 10 40 -6z m157 9 c-3 -3 -12 -4 -19 -1 -8 3 -5 6 6 6 11 1 17
-2 13 -5z m-447 -14 l25 -8 -25 0 c-14 0 -36 4 -50 8 l-25 8 25 0 c14 0 36 -4
50 -8z m-355 -10 c4 -6 -5 -10 -19 -10 -14 0 -26 5 -26 10 0 6 9 10 19 10 11
0 23 -4 26 -10z m619 -24 c-13 -9 -30 -12 -45 -8 -23 6 -23 6 6 13 52 11 61
10 39 -5z m-204 -17 c12 -6 10 -8 -8 -9 -13 0 -31 7 -40 16 -15 15 -14 16 8 9
14 -4 32 -11 40 -16z m-108 -1 c-9 -9 -15 -9 -24 0 -9 9 -7 12 12 12 19 0 21
-3 12 -12z m192 -8 c-5 -5 -25 -13 -44 -16 -33 -6 -34 -6 -15 9 22 18 76 24
59 7z m841 0 c-3 -5 -25 -10 -48 -9 -33 0 -38 2 -22 9 28 12 78 12 70 0z
m-197 -17 c-15 -2 -42 -2 -60 0 -18 2 -6 4 27 4 33 0 48 -2 33 -4z m-913 -13
c3 -6 -4 -10 -17 -10 -18 0 -20 2 -8 10 19 12 18 12 25 0z m675 -10 c0 -5 -14
-10 -31 -10 -17 0 -28 4 -24 10 3 6 17 10 31 10 13 0 24 -4 24 -10z m-121 -16
c2 -2 -16 -4 -41 -4 -32 0 -48 -5 -52 -15 -3 -10 -18 -15 -43 -14 l-38 0 45
23 c33 18 55 22 85 18 22 -2 42 -6 44 -8z m-925 -3 c4 -5 -3 -7 -14 -4 -23 6
-26 13 -6 13 8 0 17 -4 20 -9z m121 -1 c4 -6 -14 -9 -47 -8 l-53 1 45 7 c25 4
46 8 47 8 1 1 5 -2 8 -8z m208 3 c-7 -2 -19 -2 -25 0 -7 3 -2 5 12 5 14 0 19
-2 13 -5z m-593 -13 c0 -5 -7 -10 -15 -10 -8 0 -15 5 -15 10 0 6 7 10 15 10 8
0 15 -4 15 -10z m660 -9 c6 9 36 11 115 7 99 -6 126 -11 114 -23 -3 -2 -56 -7
-119 -10 -62 -2 -122 -8 -133 -11 -11 -3 -49 -3 -85 1 -65 7 -66 7 -43 24 19
15 32 16 83 8 46 -7 63 -6 68 4z m768 -8 c-10 -2 -26 -2 -35 0 -10 3 -2 5 17
5 19 0 27 -2 18 -5z m-953 -28 c0 -12 -80 -19 -104 -10 -14 6 -13 8 4 16 26
11 100 7 100 -6z m-1783 -105 c5 0 22 -10 36 -21 l27 -22 -25 6 c-14 2 -61 13
-105 23 l-80 19 65 5 c36 3 67 2 68 -2 2 -5 8 -8 14 -8z m78 -4 c0 -2 -7 -7
-16 -10 -8 -3 -12 -2 -9 4 6 10 25 14 25 6z m104 -7 c50 -8 86 -19 108 -35 17
-13 27 -24 20 -24 -6 0 -9 -6 -6 -13 4 -11 -9 -12 -68 -4 -79 10 -133 35 -141
67 -6 23 -9 23 87 9z m706 1 c0 -5 -7 -10 -16 -10 -8 0 -12 5 -9 10 3 6 10 10
16 10 5 0 9 -4 9 -10z m350 -10 c31 -7 32 -8 8 -9 -14 -1 -28 -4 -30 -8 -1 -5
-23 -5 -48 -2 -25 3 -34 7 -20 8 18 1 21 4 12 10 -8 5 -35 7 -60 5 -44 -3 -44
-2 -12 5 36 9 89 6 150 -9z m541 5 c36 -15 22 -19 -30 -9 -17 4 -31 10 -31 15
0 13 23 11 61 -6z m-1261 -25 c0 -5 -7 -7 -15 -4 -8 4 -15 8 -15 10 0 2 7 4
15 4 8 0 15 -4 15 -10z m124 -8 c2 -4 -11 -6 -30 -4 -19 2 -34 6 -34 8 0 8 59
4 64 -4z m13 -63 c20 -8 24 -13 13 -17 -8 -3 -18 -9 -21 -14 -7 -11 -129 22
-129 34 0 12 105 9 137 -3z m-360 -25 c-3 -3 -12 -4 -19 -1 -8 3 -5 6 6 6 11
1 17 -2 13 -5z m-217 -114 c-20 -13 -67 -13 -75 0 -4 6 12 10 42 10 35 0 44
-3 33 -10z m-90 -20 c0 -5 -2 -10 -4 -10 -3 0 -8 5 -11 10 -3 6 -1 10 4 10 6
0 11 -4 11 -10z m-65 -40 c4 -6 -15 -10 -54 -10 -34 0 -61 3 -61 8 0 11 108
14 115 2z m-67 -57 c23 -3 45 -10 48 -14 8 -13 -88 2 -116 18 l-25 14 25 -6
c14 -3 44 -8 68 -12z m-5158 -33 c0 -5 -5 -10 -11 -10 -5 0 -7 5 -4 10 3 6 8
10 11 10 2 0 4 -4 4 -10z m5066 -15 c19 -19 10 -19 -41 0 l-40 14 33 1 c18 0
40 -7 48 -15z m134 -66 c0 -12 -47 -12 -54 0 -3 4 -3 10 0 13 7 8 54 -3 54
-13z m513 -76 c-7 -2 -19 -2 -25 0 -7 3 -2 5 12 5 14 0 19 -2 13 -5z m-166 -9
c-3 -3 -12 -4 -19 -1 -8 3 -5 6 6 6 11 1 17 -2 13 -5z m159 -15 c72 -18 32
-30 -81 -23 -55 3 -102 7 -104 10 -2 2 5 4 17 4 11 0 24 5 27 10 8 13 86 13
141 -1z m28 -59 c12 -12 -170 -4 -209 10 -22 7 -1 9 85 5 63 -3 119 -10 124
-15z m-2629 -90 c8 -13 -65 -13 -85 0 -11 7 -2 10 32 10 26 0 50 -4 53 -10z
m-3095 -40 c-6 -4 -11 -11 -11 -16 1 -13 -112 -11 -116 2 -2 7 21 15 59 21 64
9 90 7 68 -7z m6898 -27 c-15 -2 -42 -2 -60 0 -18 2 -6 4 27 4 33 0 48 -2 33
-4z m-7057 -26 c-19 -23 -139 -41 -188 -28 -74 20 -50 32 63 30 58 -1 108 2
111 5 12 12 25 6 14 -7z m2904 3 c-3 -5 -12 -7 -20 -3 -21 7 -19 13 6 13 11 0
18 -4 14 -10z m3670 -50 l30 -8 -35 -1 c-19 0 -42 4 -50 9 -12 8 -11 10 5 9
11 -1 34 -5 50 -9z m1113 -27 c-10 -2 -26 -2 -35 0 -10 3 -2 5 17 5 19 0 27
-2 18 -5z m-1453 -18 c-13 -11 -38 -14 -82 -13 -98 5 -66 18 62 25 37 3 39 2
20 -12z m1518 -2 c-7 -2 -19 -2 -25 0 -7 3 -2 5 12 5 14 0 19 -2 13 -5z
m-1716 -19 c-3 -3 -12 -4 -19 -1 -8 3 -5 6 6 6 11 1 17 -2 13 -5z m878 -14
c19 -8 19 -9 -2 -9 -12 -1 -25 4 -28 9 -7 12 2 12 30 0z m868 3 c-7 -2 -19 -2
-25 0 -7 3 -2 5 12 5 14 0 19 -2 13 -5z m287 -3 c12 -8 10 -9 -10 -9 -14 1
-38 5 -55 9 -29 7 -29 8 10 9 22 0 47 -4 55 -9z m-254 -25 l29 -16 -52 3 c-29
1 -53 5 -53 9 0 4 -12 10 -27 12 -16 2 -6 5 23 6 30 0 64 -5 80 -14z m71 -1
c-3 -3 -12 -4 -19 -1 -8 3 -5 6 6 6 11 1 17 -2 13 -5z m78 -4 c-3 -5 -14 -10
-23 -10 -15 0 -15 2 -2 10 20 13 33 13 25 0z m-6335 -16 c44 -7 45 -8 15 -16
-18 -4 -43 -3 -62 3 -39 13 -58 35 -22 26 13 -3 44 -9 69 -13z m-245 -19 l30
-14 -39 2 c-22 1 -41 8 -44 15 -5 16 15 15 53 -3z m358 8 c-7 -2 -19 -2 -25 0
-7 3 -2 5 12 5 14 0 19 -2 13 -5z m697 -14 c0 -5 12 -7 28 -3 43 10 88 15 74
8 -9 -4 -10 -10 -2 -19 8 -9 4 -17 -14 -29 -14 -9 -31 -16 -38 -16 -7 0 -22
-7 -32 -15 -11 -8 -30 -15 -43 -15 -13 0 -23 -4 -23 -9 0 -5 -10 -12 -22 -14
l-23 -4 22 -8 c19 -6 20 -9 8 -21 -15 -15 -34 -18 -61 -7 -16 6 -16 7 2 14 19
7 19 8 0 8 -18 1 -18 3 4 26 l23 25 -47 0 c-55 0 -53 14 5 31 27 9 36 15 27
21 -10 6 -8 8 5 8 9 0 17 -4 17 -8 0 -5 14 -7 30 -4 33 5 41 22 10 22 -19 0
-26 11 -15 22 8 8 65 -4 65 -13z m-1155 1 c4 -6 -8 -11 -27 -11 -26 -2 -22 -3
17 -9 28 -4 77 -14 110 -23 32 -10 74 -17 92 -17 17 0 35 -4 38 -10 4 -6 -6
-10 -23 -10 -17 0 -32 -6 -36 -15 -4 -11 -22 -15 -73 -15 -66 0 -67 0 -39 -15
15 -8 35 -15 44 -15 31 0 2 -12 -65 -26 -48 -10 -75 -11 -93 -4 -23 9 -78 17
-122 19 -58 3 34 41 96 41 42 0 29 34 -17 45 -25 7 -29 27 -4 24 7 -1 28 0 47
1 25 2 29 4 13 7 -13 2 -23 9 -23 14 0 5 -8 10 -17 10 -10 1 -4 5 12 9 44 11
63 11 70 0z m5890 0 c3 -5 -1 -10 -9 -10 -8 0 -18 5 -21 10 -3 6 1 10 9 10 8
0 18 -4 21 -10z m575 -5 c-10 -12 -10 -15 0 -15 8 0 11 -3 7 -6 -3 -3 -29 0
-56 7 -59 15 -50 29 18 29 37 0 42 -2 31 -15z m-6193 -1 c-3 -3 -12 -4 -19 -1
-8 3 -5 6 6 6 11 1 17 -2 13 -5z m-67 -14 c0 -5 -4 -10 -9 -10 -6 0 -13 5 -16
10 -3 6 1 10 9 10 9 0 16 -4 16 -10z m5340 -10 c0 -5 -9 -10 -19 -10 -11 0
-23 5 -26 10 -4 6 5 10 19 10 14 0 26 -4 26 -10z m119 -16 c8 -7 -54 -2 -79 6
-17 6 -9 7 25 3 28 -3 52 -7 54 -9z m-159 -14 c24 -8 24 -8 -5 -9 -16 0 -37 4
-45 9 -12 8 -11 10 5 9 11 -1 31 -5 45 -9z m705 0 c3 -6 -5 -10 -19 -10 -13 0
-27 -6 -29 -12 -4 -10 -8 -10 -15 1 -6 8 -27 17 -48 21 -33 7 -28 8 33 9 39 0
75 -3 78 -9z m188 3 c-7 -2 -19 -2 -25 0 -7 3 -2 5 12 5 14 0 19 -2 13 -5z
m-2213 -18 c0 -8 -7 -15 -15 -15 -8 0 -15 7 -15 15 0 8 7 15 15 15 8 0 15 -7
15 -15z m1433 -2 c-7 -2 -21 -2 -30 0 -10 3 -4 5 12 5 17 0 24 -2 18 -5z m920
0 c-7 -2 -21 -2 -30 0 -10 3 -4 5 12 5 17 0 24 -2 18 -5z m-840 -10 c-7 -2
-21 -2 -30 0 -10 3 -4 5 12 5 17 0 24 -2 18 -5z m344 1 c-3 -3 -12 -4 -19 -1
-8 3 -5 6 6 6 11 1 17 -2 13 -5z m-972 -25 c5 -5 -12 -7 -40 -3 -28 4 -54 11
-60 15 -5 5 12 7 40 3 28 -4 54 -11 60 -15z m-5875 1 c0 -5 -7 -10 -15 -10 -8
0 -15 5 -15 10 0 6 7 10 15 10 8 0 15 -4 15 -10z m5274 -36 c9 -3 13 -11 10
-16 -4 -6 -1 -14 6 -18 16 -10 -72 -1 -124 12 -29 7 -36 12 -25 19 16 10 109
12 133 3z m1136 -14 c-20 -13 -43 -13 -35 0 3 6 16 10 28 10 18 0 19 -2 7 -10z
m-5766 -33 c8 -12 7 -20 -2 -29 -10 -10 -15 -10 -22 2 -14 21 -12 52 2 48 6
-2 16 -12 22 -21z m4859 6 c-13 -2 -35 -2 -50 0 -16 2 -5 4 22 4 28 0 40 -2
28 -4z m-5206 -18 c8 -9 12 -19 9 -23 -8 -8 -38 10 -44 26 -5 17 17 15 35 -3z
m438 5 c-4 -6 -19 -9 -35 -8 -37 3 -31 12 9 15 19 1 29 -2 26 -7z m4935 -10
c-20 -13 -63 -13 -55 0 3 6 21 10 38 10 24 0 28 -3 17 -10z m-385 -10 c3 -5
-3 -10 -15 -10 -12 0 -18 5 -15 10 3 6 10 10 15 10 5 0 12 -4 15 -10z m720 0
c-3 -5 -10 -10 -16 -10 -5 0 -9 5 -9 10 0 6 7 10 16 10 8 0 12 -4 9 -10z
m-5330 -10 c-3 -5 -12 -10 -18 -10 -7 0 -6 4 3 10 19 12 23 12 15 0z m4678 -7
c-7 -2 -19 -2 -25 0 -7 3 -2 5 12 5 14 0 19 -2 13 -5z m94 1 c-3 -3 -12 -4
-19 -1 -8 3 -5 6 6 6 11 1 17 -2 13 -5z m-3767 -45 c0 -11 -4 -17 -10 -14 -5
3 -10 13 -10 21 0 8 5 14 10 14 6 0 10 -9 10 -21z m-2290 -39 c0 -5 -4 -10
-10 -10 -5 0 -10 5 -10 10 0 6 5 10 10 10 6 0 10 -4 10 -10z m820 1 c0 -5 10
-11 23 -15 17 -5 19 -8 8 -15 -9 -6 -21 -5 -33 2 -19 13 -25 37 -8 37 6 0 10
-4 10 -9z m321 -4 c-1 -12 -15 -9 -19 4 -3 6 1 10 8 8 6 -3 11 -8 11 -12z
m-41 -77 c12 0 12 -3 -2 -16 -12 -13 -20 -14 -37 -5 -28 16 -27 35 2 27 12 -3
29 -6 37 -6z m205 -40 c3 -5 1 -10 -4 -10 -6 0 -11 5 -11 10 0 6 2 10 4 10 3
0 8 -4 11 -10z m915 0 c0 -5 -4 -10 -10 -10 -5 0 -10 5 -10 10 0 6 5 10 10 10
6 0 10 -4 10 -10z m-1544 -71 c9 -16 -12 -33 -31 -25 -14 5 -15 9 -5 21 15 18
26 19 36 4z m2215 -14 c14 -10 33 -30 43 -43 16 -20 16 -26 5 -33 -12 -8 -11
-12 4 -23 23 -18 22 -35 -3 -29 -15 4 -20 0 -20 -14 0 -27 10 -35 27 -22 23
20 4 -52 -25 -90 -89 -120 -277 -39 -275 121 1 52 35 107 88 140 38 24 120 20
156 -7z m-3156 -55 c-5 -8 -11 -8 -17 -2 -6 6 -7 16 -3 22 5 8 11 8 17 2 6 -6
7 -16 3 -22z m2175 5 c0 -8 -9 -15 -20 -15 -20 0 -26 11 -13 23 12 13 33 7 33
-8z m5621 2 c-1 -12 -15 -9 -19 4 -3 6 1 10 8 8 6 -3 11 -8 11 -12z m-7241
-27 c0 -5 -4 -10 -10 -10 -5 0 -10 5 -10 10 0 6 5 10 10 10 6 0 10 -4 10 -10z
m265 -9 c7 -12 -12 -24 -25 -16 -11 7 -4 25 10 25 5 0 11 -4 15 -9z m4365 -11
c0 -5 -5 -10 -11 -10 -5 0 -7 5 -4 10 3 6 8 10 11 10 2 0 4 -4 4 -10z m-4770
-85 c0 -8 -4 -15 -9 -15 -13 0 -22 16 -14 24 11 11 23 6 23 -9z m1520 -105 c0
-5 -4 -10 -10 -10 -5 0 -10 5 -10 10 0 6 5 10 10 10 6 0 10 -4 10 -10z m50 0
c0 -5 -4 -10 -10 -10 -5 0 -10 5 -10 10 0 6 5 10 10 10 6 0 10 -4 10 -10z
m-120 -50 c0 -5 -4 -10 -10 -10 -5 0 -10 5 -10 10 0 6 5 10 10 10 6 0 10 -4
10 -10z m5230 -31 c0 -18 -2 -19 -15 -9 -8 7 -15 16 -15 21 0 5 7 9 15 9 9 0
15 -9 15 -21z m2705 1 c-3 -5 -13 -10 -21 -10 -8 0 -12 5 -9 10 3 6 13 10 21
10 8 0 12 -4 9 -10z m-7039 -151 c3 -5 -6 -9 -20 -9 -14 0 -29 0 -33 -1 -5 0
-9 6 -11 14 -2 10 5 12 28 9 17 -2 33 -8 36 -13z m164 2 c0 -11 -39 -25 -47
-17 -3 3 -13 1 -22 -4 -9 -4 -32 -5 -51 0 l-35 8 40 1 c22 1 47 6 55 11 19 12
60 13 60 1z m103 2 c-7 -2 -19 -2 -25 0 -7 3 -2 5 12 5 14 0 19 -2 13 -5z
m-595 -31 c2 -7 -6 -12 -17 -12 -21 0 -27 11 -14 24 9 9 26 2 31 -12z m-738
-52 c0 -5 -2 -10 -4 -10 -3 0 -8 5 -11 10 -3 6 -1 10 4 10 6 0 11 -4 11 -10z
m-415 -28 c-3 -3 -11 0 -18 7 -9 10 -8 11 6 5 10 -3 15 -9 12 -12z m291 10
c-2 -4 19 -9 47 -10 29 -1 66 -7 82 -12 26 -9 23 -9 -19 -5 -27 3 -69 5 -93 5
-28 0 -42 4 -38 10 4 7 -3 8 -21 4 -19 -5 -25 -4 -20 5 4 6 21 11 37 11 17 0
28 -4 25 -8z m167 1 c-7 -2 -19 -2 -25 0 -7 3 -2 5 12 5 14 0 19 -2 13 -5z
m143 -24 c25 -6 47 -15 50 -20 7 -12 -39 -12 -51 0 -6 5 -23 11 -39 13 -16 2
-32 9 -34 17 -3 10 0 12 13 7 10 -3 37 -11 61 -17z m117 14 c-7 -2 -19 -2 -25
0 -7 3 -2 5 12 5 14 0 19 -2 13 -5z m-549 -23 c4 -4 -8 -8 -28 -8 -20 0 -34 4
-31 8 3 5 -1 11 -7 14 -7 3 3 3 22 0 19 -3 39 -10 44 -14z m174 -17 c-10 -2
-26 -2 -35 0 -10 3 -2 5 17 5 19 0 27 -2 18 -5z m-118 -13 c0 -5 -9 -10 -20
-10 -11 0 -20 5 -20 10 0 6 9 10 20 10 11 0 20 -4 20 -10z m200 0 c-19 -6 -21
-8 -6 -9 11 -1 17 -4 13 -7 -8 -8 -47 5 -47 17 0 5 15 9 33 8 30 -1 31 -1 7
-9z m267 4 c-3 -3 -12 -4 -19 -1 -8 3 -5 6 6 6 11 1 17 -2 13 -5z m-50 -40
c-3 -3 -12 -4 -19 -1 -8 3 -5 6 6 6 11 1 17 -2 13 -5z m-419 -11 c-10 -2 -28
-2 -40 0 -13 2 -5 4 17 4 22 1 32 -1 23 -4z m-545 -20 c-7 -2 -19 -2 -25 0 -7
3 -2 5 12 5 14 0 19 -2 13 -5z m920 0 c-7 -2 -19 -2 -25 0 -7 3 -2 5 12 5 14
0 19 -2 13 -5z m-724 -19 c15 -14 -17 -14 -66 -1 l-58 16 60 -6 c33 -3 62 -7
64 -9z m221 6 l25 -8 -25 0 c-14 -1 -43 3 -65 7 l-40 9 40 0 c22 0 51 -4 65
-8z m580 2 c0 -5 -13 -7 -30 -4 -16 2 -30 6 -30 8 0 2 14 4 30 4 17 0 30 -4
30 -8z m574 -27 c-4 -8 -10 -15 -15 -15 -5 0 -9 7 -9 15 0 8 7 15 15 15 9 0
12 -6 9 -15z m-849 -4 c35 -8 36 -9 10 -9 -16 -1 -48 3 -70 7 -35 8 -36 9 -10
9 17 1 48 -3 70 -7z m1759 -32 c-8 -14 -21 -10 -28 7 -10 25 5 40 20 19 7 -10
11 -22 8 -26z m-1199 22 c3 -5 1 -12 -5 -16 -5 -3 -10 1 -10 9 0 18 6 21 15 7z
m1067 -26 c0 -5 -5 -11 -11 -13 -6 -2 -11 4 -11 13 0 9 5 15 11 13 6 -2 11 -8
11 -13z m-1489 -2 c-7 -2 -19 -2 -25 0 -7 3 -2 5 12 5 14 0 19 -2 13 -5z
m1142 -22 c7 -12 -12 -24 -25 -16 -11 7 -4 25 10 25 5 0 11 -4 15 -9z m4685
-61 c0 -5 -5 -10 -11 -10 -5 0 -7 5 -4 10 3 6 8 10 11 10 2 0 4 -4 4 -10z
m-4703 -16 c-3 -3 -12 -4 -19 -1 -8 3 -5 6 6 6 11 1 17 -2 13 -5z m-709 -11
c-10 -2 -28 -2 -40 0 -13 2 -5 4 17 4 22 1 32 -1 23 -4z m897 -3 c3 -5 1 -10
-4 -10 -6 0 -11 5 -11 10 0 6 2 10 4 10 3 0 8 -4 11 -10z m2855 -101 c0 -5 -7
-9 -15 -9 -9 0 -15 9 -15 21 0 18 2 19 15 9 8 -7 15 -16 15 -21z m-3340 -135
c0 -20 -30 -30 -41 -13 -6 9 -3 18 8 26 18 14 33 8 33 -13z m-711 -18 c9 -11
9 -16 0 -21 -10 -7 -28 10 -29 28 0 12 17 8 29 -7z m4111 -286 c0 -5 -7 -10
-15 -10 -8 0 -15 5 -15 10 0 6 7 10 15 10 8 0 15 -4 15 -10z m615 -206 c0 -10
-8 -20 -18 -22 -22 -4 -35 27 -16 39 20 12 34 5 34 -17z m-1955 -119 c0 -8 -4
-15 -10 -15 -5 0 -10 7 -10 15 0 8 5 15 10 15 6 0 10 -7 10 -15z m1080 -45 c0
-5 -4 -10 -10 -10 -5 0 -10 5 -10 10 0 6 5 10 10 10 6 0 10 -4 10 -10z m-5760
-141 c0 -5 -4 -9 -10 -9 -5 0 -10 7 -10 16 0 8 5 12 10 9 6 -3 10 -10 10 -16z
m8615 -39 c3 -5 1 -10 -4 -10 -6 0 -11 5 -11 10 0 6 2 10 4 10 3 0 8 -4 11
-10z m-1295 -25 c0 -8 -4 -15 -10 -15 -5 0 -10 7 -10 15 0 8 5 15 10 15 6 0
10 -7 10 -15z m-2292 -97 c-6 -18 -28 -21 -28 -4 0 9 7 16 16 16 9 0 14 -5 12
-12z m2272 -68 c0 -5 -4 -10 -10 -10 -5 0 -10 5 -10 10 0 6 5 10 10 10 6 0 10
-4 10 -10z m-600 -116 c0 -8 8 -14 18 -15 13 0 12 -2 -5 -9 -23 -9 -32 -30
-13 -30 6 0 8 -16 5 -39 -4 -29 0 -44 15 -61 17 -20 20 -38 20 -135 0 -83 4
-120 16 -144 9 -18 14 -43 11 -57 -2 -13 -1 -24 2 -24 4 0 12 65 19 144 12
138 12 145 -8 192 -17 38 -19 53 -11 67 8 13 8 17 -1 18 -8 0 -8 3 2 6 21 9
44 33 46 51 4 23 18 32 34 22 10 -7 11 -10 3 -10 -16 0 -18 -116 -3 -125 6 -3
10 2 10 12 0 15 2 16 10 3 5 -8 10 -130 11 -270 0 -140 1 -286 2 -325 1 -38
-1 -114 -5 -169 l-5 -98 34 53 c37 59 48 68 56 45 7 -17 -77 -127 -124 -165
l-30 -23 7 26 c5 21 3 25 -10 20 -9 -3 -16 -1 -16 5 0 6 -7 11 -16 11 -10 0
-14 -6 -10 -15 3 -8 -1 -21 -9 -29 -11 -11 -12 -16 -2 -20 9 -5 9 -7 0 -12
-19 -8 -17 -45 2 -38 17 7 18 3 9 -20 -3 -9 -11 -13 -16 -10 -6 4 -5 -2 1 -14
14 -26 14 -42 0 -22 -9 12 -10 10 -6 -8 4 -18 3 -21 -8 -12 -10 9 -12 1 -9
-40 2 -28 -1 -50 -6 -50 -12 0 -14 -107 -2 -114 4 -2 8 -51 9 -107 2 -77 6
-106 18 -118 13 -14 15 -13 16 9 1 14 2 30 4 35 1 6 3 16 3 24 5 41 29 -46 36
-129 2 -19 4 -40 5 -47 0 -6 10 -10 22 -8 15 3 19 0 15 -10 -3 -9 0 -12 10 -8
11 4 14 -8 15 -63 0 -38 2 -78 4 -89 3 -11 7 -72 10 -135 4 -63 8 -136 10
-162 2 -32 -1 -51 -11 -59 -22 -18 -18 -59 6 -59 11 0 23 -1 27 -2 4 -2 6 60
5 137 -2 130 5 184 22 156 4 -6 12 -11 17 -11 6 0 8 4 5 8 -2 4 0 14 5 22 9
13 10 13 8 0 -3 -31 1 -47 14 -47 6 0 79 -33 161 -73 82 -39 161 -76 175 -81
25 -9 25 -8 7 6 -11 8 -26 15 -33 15 -7 0 -13 4 -13 9 0 5 16 7 36 5 33 -4 34
-3 20 12 -19 18 -19 24 -6 58 6 16 6 27 0 31 -19 12 -10 24 17 22 25 -2 47
-27 24 -27 -6 0 -11 -4 -11 -10 0 -5 6 -10 14 -10 17 0 15 45 -3 63 -6 6 -11
17 -11 25 0 12 3 12 15 2 10 -9 15 -9 15 -1 0 6 5 11 11 11 5 0 8 -4 5 -9 -5
-8 19 -8 54 0 10 3 14 -3 13 -18 -2 -13 2 -23 8 -23 7 0 0 -9 -15 -21 -19 -15
-25 -27 -21 -40 4 -11 2 -19 -4 -19 -6 0 -11 6 -11 13 0 8 -7 14 -15 14 -11 0
-12 -4 -4 -13 9 -10 5 -11 -18 -5 -22 6 -30 5 -30 -4 0 -7 8 -12 18 -10 10 2
18 1 18 -3 -2 -16 14 -52 23 -52 5 0 8 -10 6 -22 -2 -17 2 -23 17 -23 20 -1
22 -7 11 -35 -5 -13 12 -15 126 -13 154 3 259 9 306 18 19 4 39 2 46 -4 7 -6
38 -9 72 -6 32 2 107 5 166 6 78 1 110 5 119 15 15 18 30 18 23 0 -4 -12 20
-14 145 -12 136 2 153 4 167 22 13 16 15 16 10 2 -5 -16 6 -17 117 -17 75 0
124 4 128 10 5 8 13 8 28 0 14 -8 84 -11 216 -9 107 2 195 3 195 2 0 -14 43
-230 49 -247 7 -17 6 -29 -2 -37 -9 -10 -8 -12 5 -7 11 4 21 0 27 -11 8 -16 5
-17 -25 -14 -18 2 -32 8 -29 12 8 12 -28 46 -50 47 -11 0 -59 4 -107 8 -66 6
-88 5 -88 -4 0 -7 5 -9 10 -6 6 3 10 1 10 -4 0 -6 9 -11 19 -11 11 0 23 -5 27
-11 3 -6 17 -9 30 -6 20 4 23 1 19 -14 -4 -12 -1 -19 7 -19 9 -1 7 -5 -4 -14
-22 -16 -23 -27 -3 -20 8 4 15 1 15 -4 0 -6 -9 -14 -20 -17 -11 -4 -17 -11
-14 -17 4 -6 10 -5 15 3 6 10 9 11 9 2 0 -9 17 -13 49 -13 54 0 70 -16 49 -50
-19 -29 -36 -32 -31 -5 4 18 0 23 -24 28 -15 3 -33 1 -39 -4 -6 -5 -13 -6 -16
-3 -3 3 -9 0 -14 -7 -4 -8 -3 -10 4 -5 7 4 12 1 12 -8 0 -8 5 -18 11 -22 8 -4
9 1 4 15 -6 20 -5 21 14 10 11 -8 18 -15 16 -18 -3 -2 3 -10 13 -17 16 -13 16
-13 0 -14 -10 0 -18 -4 -18 -9 0 -6 9 -8 20 -6 11 2 18 0 15 -6 -4 -5 1 -9 9
-9 10 0 13 -6 10 -15 -4 -8 -1 -22 6 -31 17 -19 -1 -39 -27 -30 -22 9 -29 6
-25 -11 3 -16 -14 -17 -23 -3 -4 6 -15 8 -26 5 -13 -4 -19 -2 -19 9 0 20 -17
20 -37 1 -20 -20 -33 -10 -33 25 0 16 -5 32 -10 35 -6 4 -8 11 -5 16 4 5 -3 5
-18 0 -21 -8 -26 -6 -36 15 -6 13 -6 24 -1 24 5 0 11 9 15 19 4 12 12 18 20
15 13 -5 13 -8 0 -20 -8 -8 -11 -22 -8 -31 4 -11 8 -13 11 -5 2 7 7 10 12 7
14 -8 8 44 -6 56 -8 6 -14 22 -14 35 0 17 -4 22 -15 18 -8 -4 -15 -2 -15 4 0
5 -22 12 -50 16 -58 8 -69 24 -12 18 27 -3 34 -1 26 7 -15 16 -90 19 -87 3 2
-8 -9 -12 -35 -11 -36 1 -36 2 -7 8 17 4 -17 7 -80 8 -60 1 -119 4 -130 7 -11
2 -48 7 -82 11 -44 5 -63 12 -63 21 0 8 -4 14 -10 14 -5 0 -10 -4 -10 -9 0 -5
-11 -8 -25 -8 -15 0 -25 5 -25 13 0 8 -5 14 -11 14 -6 0 -8 -7 -5 -16 6 -15
-1 -16 -51 -11 -32 4 -96 9 -143 13 -47 4 -88 12 -92 18 -5 7 -8 7 -8 -3 0 -9
-8 -11 -24 -7 -13 3 -70 9 -127 12 -57 4 -113 8 -124 9 -11 1 -42 3 -69 4 -38
1 -46 4 -38 14 7 8 7 18 2 27 -5 9 -5 17 0 20 5 3 1 11 -9 17 -16 10 -17 8
-13 -13 3 -17 0 -24 -12 -24 -10 0 -13 -5 -9 -16 6 -15 -6 -16 -133 -9 -76 4
-142 9 -146 12 -5 2 -8 13 -8 24 0 11 -7 51 -16 89 -16 70 -16 70 -47 66 -18
-2 -81 -4 -142 -5 -85 -1 -106 -4 -97 -13 7 -7 12 -17 12 -22 0 -6 -4 -4 -9 3
-7 10 -31 16 -78 17 -37 2 -58 0 -46 -2 19 -5 21 -9 13 -30 -16 -40 -12 -54
14 -54 16 0 26 -7 29 -22 4 -12 5 -24 2 -26 -2 -2 -124 4 -272 12 -147 9 -283
17 -300 18 -37 2 -45 17 -10 19 16 1 17 3 5 6 -10 2 -15 10 -11 19 10 28 -16
13 -29 -16 -8 -18 -18 -28 -26 -25 -8 3 -50 6 -95 6 -45 1 -74 3 -64 6 9 2 17
10 17 16 0 8 4 7 12 -1 19 -19 47 -15 43 6 -2 10 1 25 6 33 6 10 9 6 9 -16 1
-30 1 -30 14 -7 11 21 14 21 25 8 7 -8 10 -20 6 -26 -3 -5 0 -10 9 -10 11 0
13 9 10 34 l-4 35 52 4 c71 5 -790 -2 -917 -8 -186 -9 -1066 -7 -1032 2 11 3
16 11 13 19 -4 10 2 13 19 12 17 -2 21 -6 14 -14 -13 -16 17 -12 33 4 17 17
39 15 32 -3 -4 -8 -1 -15 5 -15 6 0 12 8 12 18 1 16 2 16 6 0 2 -10 9 -18 14
-18 6 0 8 4 5 8 -3 5 17 4 43 -2 47 -9 96 -2 75 12 -6 4 -13 15 -17 25 -6 16
12 23 45 18 59 -8 121 -2 137 13 27 24 48 17 74 -23 17 -28 18 -34 5 -29 -9 4
-29 3 -45 -2 -25 -7 -23 -8 20 -9 36 -1 49 3 54 16 4 9 1 19 -5 21 -7 2 -12
10 -12 19 0 29 25 6 28 -26 l3 -33 112 7 c103 6 157 15 94 15 -22 0 -27 5 -27
25 0 18 5 25 20 25 11 0 20 -4 20 -9 0 -4 25 -7 55 -5 34 2 55 -1 55 -8 0 -5
6 -8 13 -5 8 3 20 1 28 -4 10 -6 3 -9 -23 -9 -20 0 -40 5 -43 10 -3 6 -12 10
-18 10 -7 0 -6 -4 3 -10 16 -10 11 -13 -35 -23 -32 -7 88 -8 139 -1 31 5 43
10 34 15 -9 6 -9 9 -1 9 6 0 14 -3 17 -8 7 -11 339 -13 356 -2 12 8 10 10 -10
8 -20 -3 -24 2 -26 25 -2 22 0 26 14 19 24 -11 162 -6 175 7 7 7 7 11 1 11
-12 0 -11 25 1 53 5 11 2 24 -9 36 -18 20 -23 76 -5 66 6 -4 17 1 24 11 11 15
14 16 15 4 0 -12 3 -11 11 3 14 24 38 22 32 -3 -3 -11 0 -20 6 -20 6 0 11 6
11 13 0 9 3 8 9 -2 5 -7 5 -29 0 -49 -9 -40 -3 -55 11 -32 8 12 10 12 10 -3 0
-11 9 -31 20 -47 18 -26 18 -40 -2 -40 -5 0 -6 5 -3 10 3 6 -1 17 -9 26 -9 8
-16 12 -16 8 0 -5 -5 -3 -11 3 -13 13 -59 -6 -59 -24 0 -6 -7 -18 -15 -27 -9
-8 -16 -19 -16 -23 0 -4 -10 -8 -22 -7 -12 1 -26 -4 -32 -10 -8 -8 6 -12 53
-14 52 -2 63 0 59 12 -6 15 10 36 28 36 5 0 2 -5 -7 -11 -25 -14 -11 -39 22
-39 29 0 55 21 42 35 -4 5 1 5 11 2 9 -4 17 -3 17 2 0 5 27 3 60 -4 34 -7 63
-9 66 -4 3 5 10 9 15 9 6 0 8 -4 5 -8 -3 -5 8 -8 24 -7 16 1 27 -2 25 -6 -6
-9 24 -21 36 -13 12 7 11 44 -1 44 -6 0 -5 8 2 19 9 15 9 23 -1 35 -17 21 -35
21 -27 0 6 -16 -9 -44 -24 -44 -5 0 -6 9 -3 21 4 14 -1 25 -16 36 -17 12 -20
18 -10 29 9 11 9 14 -1 14 -6 0 -14 -9 -17 -20 -3 -11 -12 -20 -19 -20 -9 0
-14 -11 -14 -27 -1 -24 -2 -25 -11 -10 -12 21 -33 23 -25 2 3 -8 0 -15 -5 -15
-7 0 -9 9 -6 22 4 14 0 26 -10 34 -15 11 -16 14 -1 36 9 13 18 33 21 43 3 13
5 8 6 -12 0 -18 6 -33 12 -33 7 0 9 10 5 25 -4 17 -2 26 6 27 39 4 74 2 79 -6
4 -4 15 -5 26 -2 15 5 19 13 16 39 -7 58 -13 78 -23 72 -6 -3 -10 -1 -10 4 0
6 4 11 8 11 10 0 6 37 -20 214 -11 79 -17 157 -14 179 12 73 87 190 183 285
l33 33 -1 346 c0 190 2 348 5 351 4 3 6 -149 6 -339 l0 -344 26 26 25 26 -1
318 c0 175 2 316 6 313 3 -4 6 -144 5 -312 0 -186 4 -306 10 -306 5 0 9 124 9
315 0 173 -4 315 -8 315 -5 0 -5 24 -1 54 4 29 7 133 8 231 1 104 6 185 12
197 9 16 7 20 -10 25 -17 4 -21 13 -21 45 0 38 17 71 33 61 4 -2 7 -11 7 -19z
m-540 6 c0 -5 -7 -10 -16 -10 -8 0 -12 5 -9 10 3 6 10 10 16 10 5 0 9 -4 9
-10z m-425 -170 c3 -5 1 -10 -4 -10 -6 0 -11 5 -11 10 0 6 2 10 4 10 3 0 8 -4
11 -10z m2065 -110 c0 -5 -4 -10 -10 -10 -5 0 -10 5 -10 10 0 6 5 10 10 10 6
0 10 -4 10 -10z m-7380 -240 c0 -5 -4 -10 -10 -10 -5 0 -10 5 -10 10 0 6 5 10
10 10 6 0 10 -4 10 -10z m6588 -315 c0 -16 -2 -15 -8 5 -11 34 -11 60 0 35 5
-11 8 -29 8 -40z m-271 -587 c-3 -8 -6 -5 -6 6 -1 11 2 17 5 13 3 -3 4 -12 1
-19z m33 -123 c0 -14 -4 -25 -9 -25 -4 0 -6 11 -3 25 2 14 6 25 8 25 2 0 4
-11 4 -25z m-3163 -370 c1 -21 -3 -35 -10 -35 -7 0 -6 -4 3 -10 17 -11 22
-131 5 -127 -5 1 -9 18 -8 37 l2 35 -15 -33 c-13 -29 -12 -35 1 -56 14 -21 14
-25 0 -36 -12 -10 -15 -10 -15 0 0 10 -3 10 -15 0 -8 -7 -15 -23 -15 -36 0
-12 -4 -26 -10 -29 -6 -4 -10 7 -10 25 0 17 -4 29 -9 25 -13 -7 -24 13 -28 50
-2 23 0 26 7 15 9 -13 13 -12 30 8 10 13 23 22 27 20 4 -2 12 15 18 37 5 22
14 43 20 47 6 5 6 8 -2 8 -16 0 -17 31 -1 65 15 34 23 31 25 -10z m3727 -11
c5 -14 4 -15 -9 -4 -17 14 -19 20 -6 20 5 0 12 -7 15 -16z m-13 -36 c9 -18 9
-21 -1 -11 -7 6 -20 9 -28 5 -15 -5 -15 -4 -2 11 19 21 17 21 31 -5z m-343
-30 c1 -33 -1 -39 -9 -28 -8 11 -12 12 -16 3 -8 -22 -18 -14 -19 17 -1 16 2
27 7 24 5 -3 12 2 15 10 11 29 21 17 22 -26z m-3743 22 c-3 -5 -12 -10 -18
-10 -7 0 -6 4 3 10 19 12 23 12 15 0z m1405 -20 c0 -5 -5 -10 -11 -10 -5 0 -7
5 -4 10 3 6 8 10 11 10 2 0 4 -4 4 -10z m594 -26 c3 -8 2 -12 -3 -9 -5 3 -12
1 -16 -5 -3 -5 -1 -10 4 -10 18 0 12 -17 -8 -23 -14 -3 -18 2 -19 25 0 22 3
28 14 24 8 -3 14 -1 14 4 0 15 7 12 14 -6z m-937 0 c-3 -3 -12 -4 -19 -1 -8 3
-5 6 6 6 11 1 17 -2 13 -5z m992 -16 c6 -17 4 -29 -8 -43 -15 -18 -15 -19 2
-6 15 12 17 11 18 -5 0 -11 3 -14 6 -6 2 6 13 12 24 12 17 0 18 -3 8 -21 -8
-16 -8 -23 1 -29 9 -5 6 -12 -10 -23 -12 -8 -23 -23 -24 -33 -2 -12 -13 -20
-29 -22 -23 -3 -27 1 -27 21 0 13 -9 32 -19 41 -26 24 -23 71 4 71 11 0 21 7
21 15 1 8 2 23 3 33 1 24 20 21 30 -5z m1047 -2 c-1 -12 4 -20 11 -19 8 2 10
-4 6 -14 -4 -10 -2 -14 4 -10 5 3 10 0 10 -8 0 -8 -2 -13 -5 -10 -2 2 -17 -2
-32 -10 -26 -13 -28 -13 -33 5 -3 13 -1 18 6 13 6 -4 8 0 4 10 -3 9 -1 19 5
23 7 4 6 9 -2 14 -15 9 -6 27 13 27 7 0 13 -10 13 -21z m-1596 4 c0 -5 -5 -10
-11 -10 -5 0 -7 5 -4 10 3 6 8 10 11 10 2 0 4 -4 4 -10z m1144 4 c9 -3 16 -11
16 -16 0 -6 -7 -8 -15 -4 -8 3 -15 1 -15 -5 0 -6 -7 -6 -20 1 -16 9 -20 8 -20
-5 0 -9 7 -15 16 -13 10 2 19 -3 21 -9 3 -8 -5 -13 -21 -13 -14 0 -26 -4 -26
-10 0 -5 -7 -10 -15 -10 -8 0 -15 -3 -15 -6 0 -10 27 -33 34 -29 3 3 4 2 1 -1
-2 -4 0 -15 5 -25 15 -27 -4 -33 -88 -30 -49 1 -72 -2 -67 -9 3 -5 2 -10 -4
-10 -5 0 -13 5 -16 10 -3 6 -2 10 4 10 5 0 13 9 16 20 4 11 11 17 17 14 13 -8
68 -14 68 -7 0 2 -5 13 -10 23 -8 15 -7 18 3 14 8 -3 17 2 21 11 3 9 2 14 -2
12 -4 -3 -13 1 -19 9 -11 11 -8 12 16 9 19 -2 35 3 43 13 7 9 8 13 2 9 -7 -4
-14 2 -17 14 -8 29 46 49 87 33z m6 -44 c0 -5 -2 -10 -4 -10 -3 0 -8 5 -11 10
-3 6 -1 10 4 10 6 0 11 -4 11 -10z m1130 -10 c6 -11 9 -20 7 -20 -2 0 -12 9
-22 20 -10 11 -13 20 -7 20 6 0 16 -9 22 -20z m-2582 -2 c17 -17 15 -28 -5
-29 -28 -1 27 -20 60 -21 55 -2 25 -17 -34 -17 -50 1 -59 3 -55 16 3 8 6 26 6
39 0 26 10 30 28 12z m1972 2 c0 -5 -2 -10 -4 -10 -3 0 -8 5 -11 10 -3 6 -1
10 4 10 6 0 11 -4 11 -10z m-1933 -22 c-3 -8 -6 -5 -6 6 -1 11 2 17 5 13 3 -3
4 -12 1 -19z m33 -4 c0 -8 -5 -12 -10 -9 -6 4 -8 11 -5 16 9 14 15 11 15 -7z
m-430 -4 c0 -5 -2 -10 -4 -10 -3 0 -8 5 -11 10 -3 6 -1 10 4 10 6 0 11 -4 11
-10z m-1090 -21 c0 -6 -4 -7 -10 -4 -5 3 -10 11 -10 16 0 6 5 7 10 4 6 -3 10
-11 10 -16z m2149 -3 c10 -12 8 -13 -8 -9 -12 3 -18 9 -15 14 7 12 10 11 23
-5z m-2042 -2 c-3 -3 -12 -4 -19 -1 -8 3 -5 6 6 6 11 1 17 -2 13 -5z m1447 -9
c-4 -8 -8 -15 -10 -15 -2 0 -4 7 -4 15 0 8 4 15 10 15 5 0 7 -7 4 -15z m935
-10 c19 11 32 -4 21 -25 -7 -13 -6 -20 2 -22 8 -3 3 -14 -15 -30 -19 -18 -25
-31 -20 -43 4 -13 3 -16 -5 -11 -7 4 -12 17 -13 29 -1 20 -2 20 -8 -3 -8 -28
-41 -41 -41 -16 0 9 5 16 10 16 6 0 10 7 10 15 0 8 -3 14 -7 14 -22 -4 -35 2
-30 14 2 6 1 21 -3 32 -9 25 38 55 52 33 5 -9 8 -7 8 7 1 19 1 19 15 1 7 -10
18 -15 24 -11z m791 4 c0 -6 -4 -7 -10 -4 -5 3 -10 1 -10 -4 0 -6 -7 -11 -17
-11 -14 0 -14 2 2 20 17 19 35 19 35 -1z m-2180 1 c0 -5 -12 -10 -27 -10 -22
0 -25 2 -13 10 20 13 40 13 40 0z m923 -29 c-1 -19 2 -40 7 -47 8 -8 5 -13
-10 -17 -13 -3 -18 -1 -14 6 3 7 0 5 -8 -4 -21 -25 -39 -13 -27 18 6 18 6 28
0 32 -6 4 -9 17 -8 29 1 18 7 22 32 20 29 -2 31 -4 28 -37z m2837 24 c5 3 12
0 15 -6 5 -7 1 -10 -10 -7 -10 1 -20 9 -21 16 -1 7 0 8 3 2 2 -5 9 -8 13 -5z
m-4840 -5 c0 -5 -4 -10 -10 -10 -5 0 -10 5 -10 10 0 6 5 10 10 10 6 0 10 -4
10 -10z m595 -7 c-5 -15 -4 -16 6 -5 18 17 36 15 43 -4 5 -12 2 -15 -9 -10 -9
3 -25 -3 -37 -14 -12 -11 -17 -20 -10 -20 6 0 14 5 17 10 3 6 11 10 18 10 6 0
0 -11 -13 -24 -14 -13 -28 -21 -32 -19 -5 2 -8 -1 -8 -6 0 -6 -5 -11 -12 -11
-6 0 -4 8 6 19 14 15 14 20 2 30 -15 13 -28 51 -17 51 4 0 12 -5 19 -12 9 -9
13 -7 18 5 3 9 8 17 11 17 3 0 2 -8 -2 -17z m-776 -10 c-7 -10 -15 -20 -16
-22 -2 -2 -3 5 -3 17 0 14 6 22 16 22 14 0 15 -3 3 -17z m2036 -11 c2 -11 -4
-27 -13 -35 -16 -14 -18 -13 -29 10 -12 25 -12 25 8 7 21 -19 21 -19 19 1 -5
48 6 61 15 17z m-325 -3 c0 -5 -4 -9 -10 -9 -5 0 -10 7 -10 16 0 8 5 12 10 9
6 -3 10 -10 10 -16z m354 -1 c-5 -8 -2 -9 11 -4 15 5 16 4 5 -9 -7 -9 -23 -21
-34 -26 -21 -10 -21 -10 -1 7 14 11 16 18 7 21 -13 5 -7 23 9 23 6 0 7 -5 3
-12z m256 3 c0 -12 -20 -25 -27 -18 -7 7 6 27 18 27 5 0 9 -4 9 -9z m-655 -10
c-3 -6 3 -14 12 -20 16 -9 16 -12 3 -21 -25 -16 -42 -12 -32 8 5 9 7 23 5 30
-3 6 0 12 7 12 6 0 9 -4 5 -9z m85 -7 c0 -8 -4 -12 -10 -9 -5 3 -10 10 -10 16
0 5 5 9 10 9 6 0 10 -7 10 -16z m3274 0 c10 -27 7 -32 -28 -36 l-34 -4 14 28
c16 31 39 37 48 12z m-4924 -10 c0 -8 -5 -12 -10 -9 -6 4 -8 11 -5 16 9 14 15
11 15 -7z m4610 12 c0 -2 -7 -7 -16 -10 -8 -3 -12 -2 -9 4 6 10 25 14 25 6z
m1385 -16 c10 -11 16 -20 13 -20 -3 0 -13 9 -23 20 -10 11 -16 20 -13 20 3 0
13 -9 23 -20z m-4929 -16 c-4 -9 -9 -15 -11 -12 -3 3 -3 13 1 22 4 9 9 15 11
12 3 -3 3 -13 -1 -22z m818 10 c3 -8 2 -12 -4 -9 -6 3 -10 10 -10 16 0 14 7
11 14 -7z m4066 6 c0 -5 -5 -10 -11 -10 -5 0 -7 5 -4 10 3 6 8 10 11 10 2 0 4
-4 4 -10z m-3230 -10 c0 -5 -2 -10 -4 -10 -3 0 -8 5 -11 10 -3 6 -1 10 4 10 6
0 11 -4 11 -10z m1840 -11 c0 -5 -4 -9 -10 -9 -5 0 -10 7 -10 16 0 8 5 12 10
9 6 -3 10 -10 10 -16z m534 15 c9 -3 14 -10 11 -15 -7 -10 -35 0 -35 12 0 11
3 11 24 3z m-4372 -18 c7 4 8 2 4 -4 -4 -6 -13 -9 -21 -6 -8 4 -12 11 -8 17 5
8 8 7 11 -1 2 -7 9 -9 14 -6z m508 -11 c12 -10 20 -13 20 -7 0 7 5 12 10 12 6
0 10 -9 10 -20 0 -14 4 -18 17 -13 17 7 17 6 1 -19 -13 -20 -14 -28 -5 -31 9
-4 9 -8 -2 -15 -8 -6 -11 -17 -8 -26 5 -13 0 -16 -26 -16 -18 0 -27 4 -20 8 6
4 16 19 22 34 9 23 8 26 -14 24 -13 0 -21 -4 -19 -7 2 -4 -3 -10 -12 -13 -23
-9 -34 -7 -34 4 0 6 7 10 15 10 17 0 21 35 5 45 -5 3 -10 1 -10 -5 0 -6 -5 -8
-12 -4 -8 5 -9 2 -5 -9 7 -20 -30 -60 -47 -50 -6 4 -6 8 2 11 20 6 3 22 -23
22 -18 0 -23 4 -18 16 4 11 9 12 16 5 6 -6 16 -11 22 -11 5 0 3 5 -5 10 -13 8
-12 11 4 23 11 8 16 19 12 25 -16 26 74 24 104 -3z m420 15 c0 -5 -5 -10 -11
-10 -5 0 -7 5 -4 10 3 6 8 10 11 10 2 0 4 -4 4 -10z m520 6 c0 -2 -7 -6 -15
-10 -8 -3 -15 -1 -15 4 0 6 7 10 15 10 8 0 15 -2 15 -4z m3805 -6 c3 -5 -1
-10 -10 -10 -9 0 -13 5 -10 10 3 6 8 10 10 10 2 0 7 -4 10 -10z m-4605 -9 c0
-6 8 -9 18 -9 9 0 26 -3 36 -7 15 -7 17 -5 11 5 -6 10 -4 12 9 7 10 -4 22 -7
27 -7 5 0 9 -5 9 -11 0 -6 -7 -9 -15 -6 -8 4 -17 2 -20 -4 -4 -5 -11 -6 -17
-3 -6 4 -8 2 -4 -4 3 -6 2 -13 -4 -17 -5 -3 -10 -1 -10 4 0 6 -4 11 -10 11 -5
0 -7 -7 -4 -15 4 -9 0 -15 -9 -15 -11 0 -13 6 -10 21 4 15 -1 27 -18 40 -20
15 -21 19 -6 19 9 0 17 -4 17 -9z m2070 5 c0 -11 -19 -15 -25 -6 -3 5 1 10 9
10 9 0 16 -2 16 -4z m1290 0 c0 -3 -4 -8 -10 -11 -5 -3 -10 -1 -10 4 0 6 5 11
10 11 6 0 10 -2 10 -4z m-4261 -15 c18 -12 6 -42 -14 -35 -8 3 -15 1 -15 -5 0
-6 9 -11 20 -11 42 0 18 -18 -25 -18 -25 -1 -45 3 -45 9 0 6 4 8 9 5 5 -3 14
1 20 8 10 11 7 18 -11 31 -14 11 -17 15 -6 12 10 -4 20 -2 23 3 8 12 26 12 44
1z m1851 -7 c0 -9 -7 -14 -17 -12 -25 5 -28 28 -4 28 12 0 21 -6 21 -16z m397
-6 c-3 -8 -6 -5 -6 6 -1 11 2 17 5 13 3 -3 4 -12 1 -19z m-1377 8 c0 -3 -4 -8
-10 -11 -5 -3 -10 -1 -10 4 0 6 5 11 10 11 6 0 10 -2 10 -4z m1301 -9 c-1 -12
-15 -9 -19 4 -3 6 1 10 8 8 6 -3 11 -8 11 -12z m59 7 c0 -9 -32 -33 -44 -34
-5 0 -1 9 9 20 18 20 35 26 35 14z m-525 -25 c-10 -15 -25 -10 -19 6 4 8 10
12 15 9 5 -3 7 -10 4 -15z m425 11 c0 -5 -4 -10 -10 -10 -5 0 -10 5 -10 10 0
6 5 10 10 10 6 0 10 -4 10 -10z m183 -7 c-3 -7 -6 -13 -8 -13 -2 0 -5 6 -8 13
-3 8 1 14 8 14 7 0 11 -6 8 -14z m217 3 c-7 -7 -13 -7 -20 0 -6 6 -3 10 10 10
13 0 16 -4 10 -10z m445 4 c3 -5 1 -10 -4 -10 -6 0 -11 5 -11 10 0 6 2 10 4
10 3 0 8 -4 11 -10z m1490 0 c3 -5 2 -10 -4 -10 -5 0 -13 5 -16 10 -3 6 -2 10
4 10 5 0 13 -4 16 -10z m-5655 -9 c0 -5 8 -7 19 -4 23 6 37 -13 15 -21 -10 -4
-13 -2 -8 6 4 6 3 8 -4 5 -5 -4 -8 -16 -5 -27 8 -29 -21 -26 -36 4 -13 24 -8
46 10 46 5 0 9 -4 9 -9z m275 -1 c-3 -5 -10 -10 -16 -10 -5 0 -9 5 -9 10 0 6
7 10 16 10 8 0 12 -4 9 -10z m270 0 c-3 -5 -12 -10 -18 -10 -7 0 -6 4 3 10 19
12 23 12 15 0z m1973 -23 c9 3 2 -5 -17 -17 -33 -21 -36 -21 -65 -6 l-31 15
39 -2 c27 -1 41 3 44 13 4 10 7 11 9 3 3 -7 12 -9 21 -6z m-1598 -14 c0 -9 -3
-13 -7 -10 -3 4 -12 2 -20 -4 -9 -8 -13 -8 -13 -1 0 6 8 16 18 21 22 14 22 14
22 -6z m1270 -3 c-6 -11 -12 -20 -14 -20 -3 0 -1 23 3 38 1 1 6 2 11 2 7 0 7
-6 0 -20z m1438 0 c-14 -23 -38 -27 -38 -7 0 19 10 27 32 27 16 0 16 -3 6 -20z
m4303 -37 c-13 -12 -13 -13 2 -13 9 0 17 -4 17 -10 0 -5 -8 -10 -19 -10 -10 0
-19 -6 -18 -12 0 -7 -1 -22 -2 -33 -1 -18 -3 -18 -11 -3 -12 20 -16 85 -6 115
l7 21 23 -21 c20 -19 21 -24 7 -34z m-4941 25 c0 -16 -3 -19 -11 -11 -6 6 -8
16 -5 22 11 17 16 13 16 -11z m-1460 -4 c0 -8 -4 -12 -10 -9 -5 3 -10 1 -10
-4 0 -6 -10 -11 -22 -10 l-23 0 23 9 c12 5 22 14 22 20 0 5 5 10 10 10 6 0 10
-7 10 -16z m170 -24 c5 0 12 5 15 10 11 18 35 11 35 -10 0 -23 -8 -24 -44 -10
-17 6 -26 6 -26 0 0 -5 -15 -7 -32 -4 -18 3 -41 5 -50 5 -9 0 -19 7 -22 14 -4
11 0 12 18 5 15 -5 27 -5 34 2 6 6 12 6 16 -1 14 -21 27 -11 15 12 l-11 22 21
-22 c12 -13 26 -23 31 -23z m428 21 c-7 -11 -16 -18 -20 -15 -4 3 -2 11 5 19
18 21 29 18 15 -4z m209 13 c-3 -3 -12 -4 -19 -1 -8 3 -5 6 6 6 11 1 17 -2 13
-5z m63 2 c0 -11 -19 -15 -25 -6 -3 5 1 10 9 10 9 0 16 -2 16 -4z m550 -10 c0
-8 -4 -17 -9 -21 -12 -7 -24 12 -16 25 9 15 25 12 25 -4z m98 2 c-3 -7 -11
-13 -18 -13 -7 0 -15 6 -17 13 -3 7 4 12 17 12 13 0 20 -5 18 -12z m4825 -8
c3 -11 1 -18 -4 -14 -5 3 -9 12 -9 20 0 20 7 17 13 -6z m-6418 0 c4 -6 -5 -10
-19 -10 -14 0 -26 5 -26 10 0 6 9 10 19 10 11 0 23 -4 26 -10z m831 -2 c4 -6
3 -8 -3 -5 -6 4 -14 0 -17 -9 -3 -8 -10 -12 -16 -9 -15 10 -12 23 8 28 9 3 18
5 19 6 1 0 5 -4 9 -11z m244 -9 c0 -5 -4 -9 -10 -9 -5 0 -10 7 -10 16 0 8 5
12 10 9 6 -3 10 -10 10 -16z m-1702 -14 c-3 -3 -9 2 -12 12 -6 14 -5 15 5 6 7
-7 10 -15 7 -18z m-2383 5 c-28 -12 -163 -12 -170 0 -4 6 29 10 92 9 64 0 91
-3 78 -9z m2435 0 c0 -5 -10 -10 -22 -9 -22 0 -22 1 -3 9 11 5 21 9 23 9 1 1
2 -3 2 -9z m1050 6 c0 -3 -4 -8 -10 -11 -5 -3 -10 -1 -10 4 0 6 5 11 10 11 6
0 10 -2 10 -4z m5930 -11 c20 -24 6 -28 -15 -5 -10 11 -13 20 -8 20 6 0 16 -7
23 -15z m-6550 -5 c0 -5 -4 -10 -10 -10 -5 0 -10 5 -10 10 0 6 5 10 10 10 6 0
10 -4 10 -10z m6370 -10 c6 -11 8 -26 4 -32 -5 -7 -2 -9 8 -5 12 4 14 1 11
-13 -8 -31 -26 -40 -43 -22 -13 14 -12 15 2 10 27 -11 29 3 3 34 -24 28 -25
48 -5 48 5 0 14 -9 20 -20z m150 -1 c0 -6 -4 -7 -10 -4 -5 3 -10 11 -10 16 0
6 5 7 10 4 6 -3 10 -11 10 -16z m-9312 -25 c75 -41 73 -44 -31 -44 -90 0 -97
1 -97 20 0 13 7 20 20 20 10 0 25 7 32 15 18 19 22 19 76 -11z m5692 16 c0 -5
-7 -7 -15 -4 -8 4 -15 8 -15 10 0 2 7 4 15 4 8 0 15 -4 15 -10z m-6036 -31
c-28 -27 -36 -30 -85 -27 l-54 3 60 18 c33 10 69 22 80 27 32 14 31 12 -1 -21z
m9466 16 c0 -8 -4 -15 -10 -15 -5 0 -10 7 -10 15 0 8 5 15 10 15 6 0 10 -7 10
-15z m-9276 -11 c12 -31 5 -34 -85 -34 -92 0 -92 0 -68 19 43 33 142 43 153
15z m9166 -10 c0 -8 -4 -12 -10 -9 -5 3 -10 10 -10 16 0 5 5 9 10 9 6 0 10 -7
10 -16z m-8875 -3 c17 -7 16 -9 -10 -14 -19 -3 -35 0 -45 9 -12 12 -11 14 10
13 14 0 34 -4 45 -8z m8550 -2 c11 -17 -1 -21 -15 -4 -8 9 -8 15 -2 15 6 0 14
-5 17 -11z m410 -19 c0 -23 -15 -28 -62 -21 -3 1 4 12 17 26 28 30 45 28 45
-5z m-2660 -16 c18 -45 18 -44 0 -44 -16 0 -19 5 -29 53 -9 40 11 33 29 -9z
m2631 -38 c16 -5 20 -12 17 -27 -4 -12 -11 -18 -20 -15 -8 3 -11 1 -8 -4 3 -6
13 -10 20 -10 9 0 12 -6 8 -17 -5 -12 -2 -15 9 -10 11 4 18 -1 21 -14 7 -27
-11 -35 -29 -13 -15 18 -15 18 -6 0 7 -13 5 -27 -7 -47 -17 -30 -34 -39 -29
-15 2 8 -1 14 -7 13 -5 -1 -9 -6 -7 -10 1 -5 -3 -7 -10 -5 -7 3 -13 11 -14 19
-2 35 -5 40 -16 33 -7 -4 -8 -3 -4 4 4 7 14 12 22 12 8 0 14 5 14 10 0 6 5 10
11 10 5 0 7 -4 4 -10 -3 -6 1 -7 9 -4 16 6 23 34 9 34 -11 0 -34 52 -27 59 3
3 9 -1 14 -9 5 -8 12 -12 15 -8 4 3 -10 17 -29 30 -20 14 -33 28 -29 31 3 4
16 -1 27 -12 12 -10 31 -22 42 -25z m-8925 -28 c37 -51 65 -106 57 -113 -3 -3
-21 -8 -39 -11 -27 -4 -40 0 -64 21 -17 16 -25 29 -19 33 6 4 18 18 27 32 9
13 17 19 17 12 0 -6 4 -12 9 -12 5 0 4 13 -2 29 -6 17 -14 28 -18 25 -4 -2 -9
3 -13 11 -11 30 15 14 45 -27z m8879 28 c0 -3 -4 -8 -10 -11 -5 -3 -10 -1 -10
4 0 6 5 11 10 11 6 0 10 -2 10 -4z m-7600 -31 c0 -8 -6 -15 -12 -15 -7 0 -24
-3 -38 -7 -25 -6 -25 -6 -6 15 22 25 56 29 56 7z m7586 -6 c-4 6 -3 11 3 11
18 0 21 -17 6 -30 -8 -7 -15 -20 -16 -29 0 -10 -3 -11 -6 -4 -6 16 -43 -6 -43
-25 0 -19 -24 -9 -28 12 -2 9 -1 24 2 33 6 14 8 14 21 -3 13 -16 16 -17 25 -4
12 19 13 27 0 35 -5 3 -10 11 -10 17 0 6 12 3 26 -7 15 -9 23 -12 20 -6z
m-9488 -54 l-32 -65 -91 0 c-49 0 -96 4 -103 8 -24 16 21 40 86 46 64 7 140
37 155 62 4 8 10 14 12 14 3 0 -10 -29 -27 -65z m9222 55 c0 -5 -2 -10 -4 -10
-3 0 -8 5 -11 10 -3 6 -1 10 4 10 6 0 11 -4 11 -10z m187 -15 c-10 -11 -23
-29 -28 -40 -8 -17 -9 -15 -5 8 2 16 -2 34 -10 41 -11 11 -6 13 25 12 37 -1
37 -1 18 -21z m-9084 -13 c3 7 6 -11 6 -39 l1 -53 -54 0 c-30 0 -56 5 -58 11
-4 13 -28 17 -95 18 -30 1 -53 6 -53 12 0 5 4 8 9 5 5 -4 11 -2 13 4 2 6 16 6
41 -1 32 -9 44 -7 84 13 25 13 51 31 57 41 10 17 12 17 28 -3 11 -14 18 -16
21 -8z m8960 21 c-7 -2 -19 -2 -25 0 -7 3 -2 5 12 5 14 0 19 -2 13 -5z m-7473
-24 c-7 -11 -14 -19 -16 -16 -7 7 7 37 17 37 6 0 5 -9 -1 -21z m183 3 c3 7 5
1 4 -14 -1 -25 -2 -26 -19 -11 -21 19 -25 41 -4 24 11 -9 15 -9 19 1z m7307
-18 c0 -8 -4 -12 -10 -9 -5 3 -10 10 -10 16 0 5 5 9 10 9 6 0 10 -7 10 -16z
m23 -4 c-3 -12 -8 -19 -11 -16 -5 6 5 36 12 36 2 0 2 -9 -1 -20z m-7069 1 c3
-5 -1 -57 -9 -116 -11 -76 -12 -117 -6 -139 6 -17 13 -42 15 -56 3 -14 19 -40
35 -57 16 -18 26 -33 21 -33 -5 0 -18 12 -29 26 -15 19 -26 24 -38 19 -17 -8
-17 -8 0 -12 21 -5 22 -19 2 -27 -8 -3 -15 0 -15 7 -1 7 -6 3 -13 -9 -14 -24
-39 -21 -30 3 5 13 3 14 -16 4 -20 -11 -21 -10 -16 12 4 16 1 28 -11 38 -16
13 -16 12 -3 -8 12 -21 12 -24 -10 -39 -16 -12 -19 -19 -11 -24 9 -5 9 -9 1
-14 -6 -4 -11 -3 -11 3 0 14 -45 61 -59 61 -8 0 -10 -8 -6 -19 5 -17 1 -20
-35 -19 l-41 0 27 29 c32 34 26 47 -29 56 -47 7 -82 -2 -107 -29 -15 -16 -20
-18 -20 -7 0 8 5 20 11 26 9 9 0 15 -35 24 l-46 11 40 26 c22 15 40 33 41 42
0 10 3 9 9 -5 5 -11 9 -15 9 -9 1 5 35 16 77 24 61 10 77 11 84 0 4 -7 27 -14
51 -16 l44 -4 -35 17 c-35 16 -35 16 -10 23 27 6 41 40 17 40 -8 0 -20 7 -27
15 -10 12 -9 15 5 15 13 0 16 6 11 23 -4 19 2 26 43 45 27 12 56 22 65 22 8 0
20 9 26 20 11 21 25 26 34 11z m7098 -13 c-7 -7 -12 -8 -12 -2 0 14 12 26 19
19 2 -3 -1 -11 -7 -17z m-8464 -22 c12 -11 4 -13 -52 -13 -36 0 -66 2 -66 4 0
2 14 10 32 17 36 16 65 13 86 -8z m8327 6 c-3 -3 -11 0 -18 7 -9 10 -8 11 6 5
10 -3 15 -9 12 -12z m35 3 c-7 -9 -15 -13 -19 -10 -3 3 1 10 9 15 21 14 24 12
10 -5z m-8873 -17 c-3 -8 -6 -5 -6 6 -1 11 2 17 5 13 3 -3 4 -12 1 -19z m386
10 c-2 -5 -11 -8 -19 -8 -8 0 -14 -6 -14 -12 0 -9 -4 -8 -10 2 -15 23 -12 26
19 25 16 0 27 -3 24 -7z m8401 -2 c35 -12 37 -14 17 -21 -14 -4 -20 -12 -17
-23 3 -9 1 -24 -4 -32 -6 -10 -8 -1 -5 28 l4 43 -20 -23 c-11 -13 -18 -17 -14
-10 8 15 0 15 -28 1 -21 -10 -21 -10 -3 5 11 9 16 16 12 16 -5 0 -3 7 4 15 7
8 13 15 14 15 0 0 19 -6 40 -14z m-9454 -11 c-7 -8 -24 -15 -38 -15 -31 0 -18
16 18 23 14 2 27 5 29 6 2 0 -2 -6 -9 -14z m9898 -38 c2 -11 -3 -17 -13 -17
-15 0 -16 2 -4 17 13 17 12 17 -13 0 -28 -17 -38 -11 -17 10 15 15 43 9 47
-10z m-353 3 c3 -5 1 -10 -4 -10 -6 0 -11 5 -11 10 0 6 2 10 4 10 3 0 8 -4 11
-10z m-115 -20 c0 -5 -5 -10 -11 -10 -5 0 -7 5 -4 10 3 6 8 10 11 10 2 0 4 -4
4 -10z m810 -3 c0 -7 -9 -13 -20 -14 -22 -2 -27 12 -7 20 21 9 27 8 27 -6z
m-163 -9 c-2 -7 -12 -13 -23 -14 -29 -1 -40 9 -18 17 29 12 46 10 41 -3z
m-9057 -52 c-1 -19 -2 -19 -15 4 -20 35 -19 62 0 36 8 -11 15 -29 15 -40z
m8877 29 c1 0 -16 -1 -38 -1 -21 -1 -39 2 -39 7 0 12 43 16 60 5 8 -6 16 -11
17 -11z m-87 0 c0 -19 -9 -19 -34 0 -19 14 -19 15 7 15 17 0 27 -5 27 -15z
m-3923 -41 c57 -4 100 -10 97 -15 -6 -11 -295 -12 -321 -1 -13 5 -3 9 32 13
77 9 83 9 192 3z m-5696 -109 l-18 -90 -89 3 c-49 1 -111 5 -137 8 -44 6 -47
7 -30 21 10 8 12 12 6 8 -8 -4 -11 -1 -7 9 7 17 36 26 126 36 43 5 77 15 97
29 17 12 36 19 41 16 6 -4 9 -3 8 2 -2 10 13 56 17 51 1 -2 -5 -43 -14 -93z
m800 57 c31 -36 49 -69 59 -103 8 -27 7 -28 -33 -33 -23 -3 -111 -7 -194 -10
l-153 -6 1 68 c0 37 3 62 5 56 4 -8 24 -6 71 8 43 13 80 18 104 14 37 -6 89 9
89 26 0 18 28 7 51 -20z m5154 9 c22 -7 45 -19 50 -26 6 -6 28 -21 50 -33 30
-16 35 -22 20 -23 -34 -2 -47 2 -79 25 -33 24 -121 62 -112 48 2 -4 32 -21 65
-37 34 -16 61 -32 61 -37 0 -4 -47 -8 -105 -8 -58 0 -105 3 -105 8 0 4 -12 20
-26 35 l-25 28 22 17 c26 22 122 23 184 3z m3571 -3 c10 -12 14 -18 7 -15 -6
4 -15 2 -19 -4 -4 -7 -3 -9 2 -6 6 3 16 2 23 -2 8 -5 -7 -12 -38 -18 -41 -8
-51 -8 -51 3 0 8 -6 14 -13 14 -9 0 -12 -9 -9 -29 4 -26 1 -29 -16 -24 -18 4
-19 8 -9 24 10 16 9 21 -3 29 -12 8 -12 10 5 11 11 1 27 2 35 3 8 0 18 -3 22
-9 4 -5 11 3 17 18 13 33 22 34 47 5z m-3782 -30 c58 -67 54 -70 -81 -62 -65
4 -119 7 -120 8 -1 1 6 16 17 34 16 26 27 32 70 38 28 4 53 11 56 15 10 16 22
9 58 -33z m-5322 3 c13 -12 18 -30 18 -73 l0 -58 -205 0 c-228 0 -217 -4 -192
69 l12 35 120 4 c103 3 126 7 160 27 40 23 56 23 87 -4z m907 4 c1 6 6 3 11
-5 8 -12 10 -10 10 10 0 15 3 20 8 13 4 -6 20 -15 35 -18 26 -7 34 -33 9 -28
-8 2 -9 -5 -2 -21 12 -32 -14 -55 -55 -50 -27 4 -26 2 13 -16 52 -25 55 -46 7
-52 -19 -2 -35 0 -35 4 0 4 -15 8 -32 8 l-33 1 30 14 c17 7 24 14 17 14 -8 1
-12 7 -9 14 2 6 -1 19 -8 27 -8 8 -16 32 -20 53 -7 33 -5 37 14 37 11 0 21 6
22 13 0 6 4 3 9 -8 5 -11 9 -15 9 -10z m1636 5 c3 -5 1 -10 -4 -10 -6 0 -11 5
-11 10 0 6 2 10 4 10 3 0 8 -4 11 -10z m2569 1 c4 -5 -2 -23 -11 -40 -17 -29
-21 -31 -79 -31 -46 0 -63 4 -68 15 -11 30 141 84 158 56z m-194 -6 c0 -15
-79 -55 -109 -55 -43 0 -35 9 37 37 60 23 72 26 72 18z m3600 -16 c0 -6 8 -8
18 -5 14 5 13 3 -3 -11 -18 -15 -21 -29 -19 -88 1 -78 -8 -100 -37 -85 -10 6
-32 12 -49 14 -17 2 -33 6 -36 9 -9 8 8 57 17 51 14 -8 50 6 44 17 -4 5 -19 9
-36 9 -16 0 -29 5 -29 10 0 11 17 14 74 11 l39 -1 -7 40 c-5 32 -3 40 9 40 8
0 15 -5 15 -11z m-5940 -3 c0 -3 -4 -8 -10 -11 -5 -3 -10 -1 -10 4 0 6 5 11
10 11 6 0 10 -2 10 -4z m-1957 -38 c7 -1 22 3 35 10 32 18 48 5 25 -21 -15
-18 -15 -19 -1 -9 15 12 17 11 15 -8 -2 -25 -36 -48 -46 -31 -4 6 -33 8 -79 5
-77 -6 -77 -5 -86 47 l-4 25 64 -8 c36 -4 70 -8 77 -10z m8447 -8 c0 -5 -4
-10 -10 -10 -5 0 -10 5 -10 10 0 6 5 10 10 10 6 0 10 -4 10 -10z m90 6 c0 -2
3 -11 6 -19 3 -8 -2 -17 -12 -21 -15 -6 -15 -4 -3 10 12 15 11 16 -10 9 -15
-4 -21 -4 -17 3 3 6 -2 8 -13 5 -10 -3 -22 0 -25 6 -5 7 7 11 33 11 23 0 41
-2 41 -4z m-9920 -21 c0 -21 -24 -29 -58 -20 l-27 8 30 13 c40 17 55 17 55 -1z
m1545 5 c-3 -5 -1 -10 5 -10 7 0 5 -6 -4 -15 -17 -17 -46 -20 -46 -5 0 6 3 9
8 9 21 -4 31 3 26 16 -4 8 -1 15 6 15 6 0 8 -4 5 -10z m7455 -10 c0 -5 -2 -10
-4 -10 -3 0 -8 5 -11 10 -3 6 -1 10 4 10 6 0 11 -4 11 -10z m706 -40 c3 0 4 7
0 15 -3 8 -1 15 4 15 13 0 13 -41 0 -60 -8 -13 -10 -12 -10 3 0 10 -8 17 -18
17 -29 0 -34 11 -15 32 17 19 17 19 25 -1 4 -12 10 -21 14 -21z m-7636 21 c0
-6 -4 -13 -10 -16 -5 -3 -10 1 -10 9 0 9 5 16 10 16 6 0 10 -4 10 -9z m62 -16
c10 2 20 0 23 -5 8 -12 -31 -51 -46 -45 -8 3 -21 0 -29 -5 -13 -8 -13 -13 -2
-31 8 -11 9 -18 3 -14 -15 9 -14 -8 1 -23 8 -8 8 -12 1 -12 -13 0 -25 28 -17
41 3 5 1 9 -5 9 -6 0 -7 7 -4 17 4 10 2 14 -4 10 -8 -5 -9 1 -4 20 5 16 13 27
20 26 6 -2 11 7 11 19 0 19 2 20 18 6 9 -9 25 -14 34 -13z m7488 10 c0 -12
-19 -12 -23 0 -4 9 -1 12 9 8 7 -3 14 -7 14 -8z m23 0 c-3 -9 -8 -14 -10 -11
-3 3 -2 9 2 15 9 16 15 13 8 -4z m-7601 -38 c-5 -19 -5 -19 -19 -1 -8 10 -18
20 -23 20 -23 3 -24 5 -11 13 23 15 60 -7 53 -32z m-444 12 c2 -11 -6 -18 -23
-21 -19 -4 -25 -1 -25 12 0 9 3 20 7 24 12 11 38 2 41 -15z m4591 -87 c19 -56
31 -105 27 -109 -4 -4 -11 -1 -16 7 -7 10 -10 11 -10 3 0 -8 -13 -13 -31 -13
-17 0 -28 4 -24 10 3 5 -4 20 -16 32 -46 49 -52 64 -39 103 7 20 9 42 6 50 -4
13 30 25 59 20 6 0 25 -47 44 -103z m283 61 c26 -26 48 -51 48 -55 0 -20 -27
-4 -75 47 -67 69 -42 76 27 8z m2578 33 c0 -2 -7 -9 -15 -16 -13 -11 -14 -10
-9 4 5 14 24 23 24 12z m720 -6 c0 -5 -7 -10 -15 -10 -8 0 -15 5 -15 10 0 6 7
10 15 10 8 0 15 -4 15 -10z m-9910 -20 c0 -26 27 -26 35 1 4 13 12 18 22 15 8
-3 26 -6 39 -6 17 0 24 -6 24 -20 0 -18 -7 -20 -87 -20 -89 0 -127 10 -108 29
10 9 37 17 63 20 6 0 12 -8 12 -19z m1653 6 c6 -14 -86 -26 -200 -26 -63 0
-71 16 -10 24 23 3 53 7 67 10 64 9 138 6 143 -8z m4721 -63 c10 -23 16 -47
14 -54 -3 -10 -23 33 -53 116 l-7 20 14 -20 c8 -11 22 -39 32 -62z m2891 37
c1 -10 -2 -17 -7 -14 -4 3 -8 15 -8 26 0 26 13 15 15 -12z m-8882 10 c74 0 78
-1 75 -21 -3 -21 -8 -22 -108 -20 -58 1 -124 4 -146 7 -36 5 -41 9 -36 26 5
19 10 20 71 14 36 -3 101 -6 144 -6z m970 -4 c10 -26 3 -27 -315 -40 -76 -2
-78 -2 -78 20 0 23 1 23 153 27 83 1 171 4 193 5 29 1 44 -3 47 -12z m1337
-27 c0 -18 -24 -20 -37 -4 -18 25 -17 40 2 25 13 -11 15 -10 9 6 -5 18 -5 18
10 0 9 -11 16 -23 16 -27z m6342 17 c-31 -13 -65 -21 -80 -18 -21 4 -14 8 39
23 89 24 103 22 41 -5z m-8112 -13 l0 -23 -208 0 -209 0 3 23 c1 12 3 22 3 22
1 0 93 0 206 0 l205 0 0 -22z m1390 24 c0 -2 -10 -12 -22 -23 l-23 -19 19 23
c18 21 26 27 26 19z m-431 -23 c12 -11 -18 -16 -136 -21 -120 -5 -232 2 -220
14 15 15 341 21 356 7z m291 -15 c15 -28 5 -23 -15 7 -9 15 -12 23 -6 20 6 -4
16 -16 21 -27z m905 -53 c71 -35 102 -48 120 -51 6 0 18 -4 28 -8 9 -4 24 -9
32 -12 27 -8 17 -31 -12 -29 -42 2 -43 3 -43 19 0 8 -4 15 -10 15 -5 0 -7 -7
-4 -15 4 -8 2 -15 -4 -15 -5 0 -17 -12 -27 -26 -20 -30 -38 -87 -25 -79 16 10
18 -23 1 -37 -12 -10 -24 -12 -44 -5 -26 8 -29 13 -31 49 -2 31 -21 20 -29
-16 -5 -20 -15 -36 -23 -36 -7 0 -19 -10 -25 -22 -8 -14 -14 -18 -17 -10 -2 6
-8 12 -13 12 -17 0 -36 24 -32 40 3 9 -3 22 -11 29 -13 11 -16 11 -16 -2 0 -8
-6 -19 -13 -26 -11 -8 -13 -4 -9 20 4 30 4 31 -19 19 -13 -7 -27 -18 -32 -24
-5 -7 -11 -5 -18 7 -8 14 -14 16 -25 6 -11 -9 -16 -7 -23 12 -8 19 -10 20 -10
6 -1 -10 -5 -16 -10 -13 -5 4 -22 1 -38 -5 -15 -6 -41 -13 -57 -14 -16 -2 -31
-7 -35 -11 -20 -28 -66 3 -66 45 0 8 -9 19 -20 25 -11 6 -44 26 -74 45 -30 19
-70 42 -89 51 l-35 17 30 5 c22 3 30 1 26 -8 -5 -13 14 -14 35 0 7 4 29 5 49
1 21 -4 33 -3 29 3 -10 16 -69 24 -77 10 -6 -9 -11 -5 -17 12 -13 35 -6 41 39
36 21 -3 41 -1 44 4 7 11 44 7 73 -9 14 -7 22 -8 22 -1 0 5 -6 10 -12 11 -7 0
0 5 17 10 17 5 42 5 60 0 16 -5 24 -10 17 -10 -22 -2 -103 -62 -97 -72 4 -5
62 -8 133 -6 140 3 215 20 207 46 -6 21 10 45 24 37 6 -4 18 -1 25 7 12 11 12
17 3 27 -7 7 4 4 23 -8 19 -12 67 -37 105 -56z m2841 60 c16 -17 19 -36 4 -36
-5 0 -7 -7 -4 -15 4 -11 2 -13 -9 -10 -8 4 -17 -1 -20 -9 -10 -25 -53 -19 -76
11 l-21 26 37 23 c44 27 69 30 89 10z m4079 -6 c4 -6 -8 -10 -29 -10 -20 0
-36 5 -36 10 0 6 13 10 29 10 17 0 33 -4 36 -10z m-4415 -6 c0 -3 -14 -25 -31
-50 -18 -27 -35 -42 -42 -37 -6 4 -29 9 -51 11 -22 2 -49 8 -59 14 -19 10 -19
10 1 30 14 14 38 22 78 25 33 3 61 7 63 9 7 6 41 5 41 -2z m-3596 -87 l31 -22
-40 -7 c-22 -4 -79 -7 -126 -7 l-86 -1 -6 28 c-3 15 -9 35 -12 45 -6 14 -1 17
26 17 19 0 43 7 53 15 17 13 25 11 75 -16 30 -17 69 -40 85 -52z m67 54 c46
-18 56 -26 55 -44 -1 -17 -9 -23 -36 -28 -28 -5 -41 -2 -64 18 -16 13 -46 33
-68 44 -85 43 4 51 113 10z m4579 -2 c0 -6 -9 -8 -22 -3 -29 8 -31 10 -23 23
7 13 45 -4 45 -20z m-4896 -42 l7 -47 -116 1 -116 1 14 21 c24 36 87 67 140
67 30 0 47 4 47 12 0 30 18 -11 24 -55z m7671 55 c-23 -20 -76 -35 -87 -24 -8
8 1 12 28 17 22 4 44 8 49 10 17 6 19 5 10 -3z m-7915 -57 c-36 -37 -50 -45
-80 -44 -19 0 -44 4 -55 8 -18 7 -17 10 15 30 19 11 37 21 40 21 3 1 28 7 55
15 73 20 73 19 25 -30z m5210 7 c0 -7 -4 -10 -10 -7 -5 3 -10 16 -10 28 0 18
2 19 10 7 5 -8 10 -21 10 -28z m57 12 c0 -19 -10 -18 -24 5 -10 16 -9 18 6 14
10 -2 18 -11 18 -19z m-1455 -6 c-7 -7 -12 -8 -12 -2 0 14 12 26 19 19 2 -3
-1 -11 -7 -17z m4713 3 c-8 -25 23 -37 39 -15 10 13 18 14 59 3 27 -6 46 -16
44 -23 -5 -14 -111 -11 -168 5 -41 11 -42 13 -19 20 14 4 18 8 10 9 -11 1 -9
4 5 10 31 13 37 12 30 -9z m-8715 -5 c0 -6 -70 -46 -81 -46 -22 0 -6 19 29 33
38 17 52 20 52 13z m7150 -21 c0 -8 -4 -15 -10 -15 -5 0 -10 7 -10 15 0 8 5
15 10 15 6 0 10 -7 10 -15z m1970 -26 c158 -13 161 -14 154 -34 -7 -16 -1 -16
-214 5 -117 12 -140 17 -140 31 0 12 35 11 200 -2z m-8317 -96 c35 -49 97
-154 97 -166 0 -21 -29 -2 -43 29 -10 19 -22 32 -28 29 -7 -5 -7 -11 1 -20 8
-9 6 -14 -8 -17 -21 -6 -46 6 -77 35 -11 10 -32 26 -47 35 -33 19 -34 22 -8
52 11 13 20 28 20 35 0 16 22 35 41 35 10 0 33 -21 52 -47z m3775 40 c-15 -2
-42 -2 -60 0 -18 2 -6 4 27 4 33 0 48 -2 33 -4z m330 2 c-8 -8 -257 -9 -265
-1 -3 3 56 6 132 6 76 0 136 -2 133 -5z m1682 1 c0 -2 -7 -6 -15 -10 -8 -3
-15 -1 -15 4 0 6 7 10 15 10 8 0 15 -2 15 -4z m-78 -31 c-3 -18 -11 -25 -26
-25 -12 0 -27 -5 -33 -11 -8 -8 -16 -8 -30 0 -10 6 -13 11 -8 12 6 1 15 2 20
4 6 1 17 3 25 4 13 1 13 2 0 11 -13 8 -13 9 0 14 8 2 22 7 30 9 26 9 27 8 22
-18z m2065 -7 c-3 -7 -5 -2 -5 12 0 14 2 19 5 13 2 -7 2 -19 0 -25z m-8123
-39 c3 -34 5 -78 5 -98 l-2 -36 -6 33 c-3 18 -9 33 -13 33 -4 0 -21 4 -38 9
-23 6 -32 5 -36 -4 -7 -18 -66 -7 -87 17 -17 20 -16 21 10 39 16 10 38 18 51
18 23 0 65 34 55 44 -4 3 7 6 24 6 30 0 30 -1 37 -61z m56 13 c14 -32 15 -41
5 -56 -17 -22 -21 -14 -30 54 -8 60 -1 61 25 2z m5730 8 c7 11 10 12 10 2 0
-7 5 -10 10 -7 6 3 10 1 10 -6 0 -7 3 -9 7 -6 3 4 12 -1 20 -11 12 -15 14 -16
26 -1 6 9 28 19 47 22 32 7 33 6 15 -7 -11 -9 -15 -16 -10 -16 6 0 3 -5 -5
-10 -20 -13 -67 -13 -75 0 -4 6 -11 8 -16 5 -5 -4 -9 -1 -9 5 0 6 -5 8 -11 5
-6 -4 -8 -14 -4 -22 4 -12 2 -13 -7 -6 -7 6 -21 10 -30 10 -22 0 -21 -46 2
-64 9 -8 11 -12 3 -13 -8 0 -10 -12 -6 -37 5 -36 5 -37 -10 -18 -9 11 -17 15
-17 8 0 -7 -10 -10 -26 -7 -16 3 -23 1 -19 -6 3 -5 13 -10 21 -10 11 0 12 -4
2 -19 -6 -10 -18 -17 -26 -13 -12 4 -12 1 -4 -15 6 -11 8 -24 4 -28 -4 -5 -2
-5 4 -2 16 9 26 -34 12 -50 -8 -10 -4 -13 21 -13 21 0 40 -8 54 -24 19 -20 35
-25 85 -28 34 -2 62 -5 62 -8 0 -3 -18 -17 -40 -31 -34 -23 -52 -27 -126 -28
-53 -1 -83 2 -80 8 4 5 2 12 -4 16 -6 4 -8 11 -5 16 4 5 0 9 -7 9 -28 0 -37
21 -18 40 17 17 18 22 5 48 -20 39 -76 64 -170 77 -63 8 -81 14 -83 28 -3 13
3 17 23 17 14 0 24 -4 21 -9 -5 -8 36 -4 64 6 10 4 5 9 -15 14 -24 7 -21 8 17
5 26 -2 46 0 43 4 -5 9 81 27 119 25 14 0 26 3 26 8 0 4 4 6 9 2 19 -11 20 13
1 30 -22 20 -27 47 -7 39 15 -5 21 32 6 41 -5 3 -6 -2 -3 -12 3 -10 -2 -7 -10
7 -18 29 -20 44 -6 35 6 -4 18 -1 26 6 13 10 17 10 24 -1 7 -12 10 -11 16 4 7
18 8 17 16 -5 7 -19 11 -21 18 -9z m460 10 c-24 -15 -37 -11 -16 5 11 8 22 12
25 9 3 -3 -1 -9 -9 -14z m141 -3 c-10 -9 -11 -8 -5 6 3 10 9 15 12 12 3 -3 0
-11 -7 -18z m-4651 3 c-8 -5 -19 -10 -25 -10 -5 0 -3 5 5 10 8 5 20 10 25 10
6 0 3 -5 -5 -10z m6350 1 c0 -6 -4 -13 -10 -16 -5 -3 -10 1 -10 9 0 9 5 16 10
16 6 0 10 -4 10 -9z m-3445 -107 c3 -38 9 -92 13 -120 l9 -52 -45 -6 c-57 -8
-410 -8 -439 0 -12 3 -20 11 -18 17 2 7 6 43 9 80 2 38 7 71 10 75 6 5 10 -14
7 -31 -1 -4 8 -2 19 5 11 7 20 16 20 19 0 17 77 40 147 44 43 2 98 11 122 20
59 21 65 20 102 -17 l32 -33 -5 50 c-4 30 -3 43 3 33 4 -8 11 -46 14 -84z
m1035 63 c0 -7 -12 -13 -27 -14 -27 -1 -27 -1 -5 11 12 7 19 16 15 21 -4 4 -2
5 5 1 6 -4 12 -13 12 -19z m-1595 3 c-5 -9 16 -15 38 -11 8 1 5 -61 -9 -181
l-6 -48 -53 0 c-52 0 -358 20 -362 23 0 1 1 15 4 31 4 21 16 33 47 47 23 11
50 26 60 34 11 8 29 15 41 15 12 0 30 7 41 15 10 8 34 15 52 15 17 0 32 4 32
8 0 4 23 16 50 26 28 10 53 22 56 27 3 5 7 9 10 9 3 0 2 -4 -1 -10z m-4535
-15 c16 -19 18 -18 -57 -40 -53 -15 -67 -16 -93 -5 -38 16 -30 24 40 43 74 19
95 20 110 2z m40 -25 c-6 -11 -13 -20 -16 -20 -2 0 0 9 6 20 6 11 13 20 16 20
2 0 0 -9 -6 -20z m870 -6 c0 -20 -7 -17 -20 6 -9 16 -8 18 5 14 8 -4 15 -12
15 -20z m-1221 -25 c-21 -27 -34 -36 -39 -29 -6 9 -13 9 -28 1 -11 -6 -28 -11
-37 -11 -13 0 -14 4 -5 20 6 11 19 20 29 20 10 0 28 9 41 20 13 11 34 20 47
20 l25 0 -33 -41z m1525 4 c10 -25 3 -23 -17 3 -13 18 -14 22 -3 18 8 -3 17
-13 20 -21z m4153 -7 c3 -3 12 -1 20 5 10 9 13 8 13 -1 0 -8 3 -10 6 -7 12 11
44 -13 44 -33 0 -11 4 -20 8 -20 5 0 14 -11 20 -25 6 -14 25 -33 42 -44 l31
-18 -53 -6 c-29 -4 -114 -10 -189 -13 -157 -8 -143 -17 -155 103 l-6 72 106
-3 c59 -2 109 -6 113 -10z m-1261 -18 c-4 -13 -12 -44 -18 -70 -12 -49 -18
-53 -53 -38 -18 8 -17 9 6 9 30 1 40 16 29 46 -5 12 -1 31 8 48 20 33 37 36
28 5z m1603 8 c16 -9 31 -22 34 -30 8 -20 -27 -39 -53 -31 -12 4 -20 2 -20 -5
0 -7 -7 -10 -15 -6 -8 3 -15 1 -15 -5 0 -6 -5 -7 -12 -3 -8 5 -9 2 -5 -9 13
-34 -3 -16 -18 20 -33 78 -32 80 24 82 29 1 64 -5 80 -13z m-3829 -30 c0 -2
-7 -9 -15 -16 -13 -11 -14 -10 -9 4 5 14 24 23 24 12z m4037 -17 c-6 -3 -24
-9 -39 -13 -21 -5 -28 -3 -28 8 0 11 11 15 40 13 22 -1 34 -4 27 -8z m573 1
c0 -5 -6 -10 -14 -10 -7 0 -28 -3 -45 -6 -24 -5 -31 -3 -31 10 0 12 10 16 45
16 25 0 45 -4 45 -10z m-3133 -103 c-3 -21 -1 -35 4 -31 5 3 12 -2 15 -11 5
-13 9 -13 22 -3 13 11 14 11 8 -1 -5 -8 -3 -16 5 -22 11 -6 9 -10 -6 -15 -11
-5 -20 -3 -23 4 -5 17 -22 15 -22 -3 0 -20 -16 -19 -24 1 -4 10 -14 14 -25 11
-22 -6 -37 19 -22 37 7 8 4 12 -10 12 -18 0 -24 -9 -20 -29 1 -5 -3 -6 -8 -3
-5 3 -7 15 -4 26 6 23 3 24 -31 9 -19 -9 -29 -8 -46 4 -12 9 -30 13 -39 10
-12 -4 -13 -2 -3 4 7 6 26 9 42 8 19 -1 30 3 30 12 0 9 15 13 49 13 27 0 56 3
64 6 9 3 17 0 20 -8 2 -7 2 1 0 17 -4 29 -3 29 12 10 11 -14 15 -32 12 -58z
m2903 54 c0 -29 -15 -33 -16 -5 -1 13 2 24 7 24 5 0 9 -9 9 -19z m253 -7 c10
-14 16 -32 13 -40 -4 -10 -1 -14 6 -11 7 2 12 13 11 23 -1 17 0 18 11 2 9 -12
16 -14 30 -6 14 8 17 7 12 -1 -10 -15 26 -14 45 1 7 7 7 5 -2 -6 -13 -14 -39
-20 -105 -27 -49 -5 -101 -11 -115 -13 -33 -6 -41 1 -27 24 9 14 9 22 0 33
-10 11 -9 17 0 24 39 31 98 30 121 -3z m-6423 -12 c0 -5 -13 -7 -30 -4 -16 2
-30 6 -30 8 0 2 14 4 30 4 17 0 30 -4 30 -8z m229 -8 c2 -2 -46 -4 -108 -4
-62 0 -110 4 -107 8 5 8 207 4 215 -4z m622 -26 c11 -21 11 -22 -4 -9 -10 7
-17 17 -17 22 0 15 9 10 21 -13z m2805 -13 c-1 -34 -2 -35 -43 -35 -31 0 -43
4 -43 14 0 17 12 26 55 42 17 7 30 12 31 13 0 0 0 -15 0 -34z m2128 1 c-6 -24
-24 -37 -24 -17 0 5 -3 17 -6 25 -5 12 -2 15 10 10 10 -4 16 -1 16 7 0 7 2 10
5 7 4 -3 3 -17 -1 -32z m-4176 -38 c0 -23 -3 -25 -18 -16 -10 7 -16 17 -13 24
2 6 0 15 -6 19 -6 3 -11 11 -11 18 0 6 7 2 16 -9 14 -18 15 -18 9 6 -7 24 -6
24 8 5 8 -11 15 -32 15 -47z m2276 38 c49 -9 90 -17 91 -18 2 -2 0 -18 -2 -35
-5 -30 -9 -33 -42 -34 -58 -3 -111 1 -201 13 -98 13 -138 34 -48 25 l58 -6 10
40 c9 31 15 39 28 35 9 -3 57 -12 106 -20z m2257 -3 c-8 -15 -10 -15 -11 -2 0
17 10 32 18 25 2 -3 -1 -13 -7 -23z m-4591 -3 c6 -11 9 -24 6 -29 -7 -11 18
-33 27 -24 4 3 7 1 7 -5 0 -23 -18 -20 -44 8 -28 32 -35 50 -11 30 20 -17 19
-1 -2 22 -9 10 -11 18 -5 18 6 0 16 -9 22 -20z m4302 11 c9 -1 29 -11 43 -23
l26 -23 -65 0 c-63 -1 -64 -1 -61 25 2 14 4 26 4 27 1 1 9 0 19 -2 9 -2 25 -4
34 -4z m-4177 -45 c-20 -41 -39 -59 -26 -24 4 13 6 30 4 38 -4 12 -3 12 5 2 7
-11 11 -8 15 9 4 13 9 20 12 17 4 -4 -1 -23 -10 -42z m55 41 c0 -2 -10 -12
-22 -23 l-23 -19 19 23 c18 21 26 27 26 19z m1970 -11 c0 -8 -4 -17 -9 -21
-12 -7 -24 12 -16 25 9 15 25 12 25 -4z m1980 -3 c1 -17 2 -17 15 0 13 18 14
18 24 -2 15 -27 14 -31 -4 -25 -9 4 -15 1 -15 -7 0 -9 13 -15 36 -16 28 -2 35
1 30 13 -3 8 -2 13 3 9 5 -3 8 -29 6 -58 -5 -84 -6 -84 -15 -62 -4 11 -6 32
-3 47 4 23 2 27 -16 25 -11 -1 -21 -7 -21 -14 0 -10 -5 -10 -17 -4 -10 6 -48
13 -85 16 -57 6 -68 10 -68 25 0 10 -3 25 -6 33 -4 12 7 17 48 25 79 14 88 14
88 -5z m853 -16 c4 -10 -2 -13 -19 -9 -13 2 -21 8 -18 13 8 14 31 11 37 -4z
m-2071 -16 c4 -4 5 -23 1 -44 -5 -35 -17 -43 -54 -39 -3 1 -84 4 -179 8 -95 4
-185 10 -199 14 -14 5 -20 9 -13 9 6 1 12 10 12 20 0 52 -4 51 219 45 113 -4
209 -9 213 -13z m1018 -3 c0 -33 13 -48 46 -57 19 -5 -25 -10 -136 -15 -181
-9 -289 -11 -294 -5 -2 2 -6 20 -10 40 l-6 36 157 10 c258 16 243 16 243 -9z
m457 0 c-3 -8 -6 -5 -6 6 -1 11 2 17 5 13 3 -3 4 -12 1 -19z m542 8 c9 -11 -2
-15 -61 -20 -74 -7 -92 -8 -129 -4 -39 4 8 25 58 26 25 1 48 4 51 7 11 11 70
5 81 -9z m-1511 -12 c17 -5 20 -10 12 -19 -8 -9 -6 -14 5 -19 9 -3 13 -10 10
-16 -3 -5 0 -10 7 -11 7 0 2 -5 -11 -10 -23 -9 -382 -10 -443 -1 -25 4 -28 8
-28 43 l0 39 213 0 c116 0 222 -3 235 -6z m886 -6 c-3 -4 -12 -8 -20 -8 -8 0
-14 4 -14 8 0 4 9 8 19 8 11 0 17 -4 15 -8z m123 -10 c-3 -8 -6 -5 -6 6 -1 11
2 17 5 13 3 -3 4 -12 1 -19z m-6773 -4 c3 -8 2 -12 -4 -9 -6 3 -10 10 -10 16
0 14 7 11 14 -7z m7046 6 c-8 -5 -26 -9 -40 -9 l-25 1 25 8 c14 4 32 8 40 9
13 1 13 0 0 -9z m-5504 -8 c6 -4 17 -25 24 -47 17 -53 22 -59 86 -95 30 -16
54 -34 54 -39 0 -6 -19 -12 -42 -16 -51 -7 -326 -25 -384 -25 l-41 0 -6 45
c-10 68 -7 70 86 72 108 1 157 21 157 63 0 20 5 30 15 30 8 0 15 5 15 10 0 12
20 13 36 2z m814 -34 c0 -14 -19 1 -31 25 -12 22 -12 22 10 3 11 -11 21 -23
21 -28z m1673 28 c4 -10 1 -13 -8 -9 -8 3 -12 9 -9 14 7 12 11 11 17 -5z
m-1619 -20 c-7 -17 -28 -18 -22 -1 2 6 6 9 11 8 4 -2 7 2 7 9 0 6 2 9 5 6 3
-3 3 -13 -1 -22z m-2413 -3 c13 -16 12 -17 -3 -4 -10 7 -18 15 -18 17 0 8 8 3
21 -13z m2470 -16 c-13 -12 -20 -15 -16 -7 14 26 28 41 33 35 3 -3 -5 -16 -17
-28z m1390 -4 c-4 -28 -6 -32 -9 -15 -3 17 -8 21 -23 17 -14 -5 -19 -2 -19 10
0 10 5 15 13 12 8 -3 20 -1 28 4 8 5 14 9 14 9 1 0 -1 -17 -4 -37z m-3901 23
c0 -3 -4 -8 -10 -11 -5 -3 -10 -1 -10 4 0 6 5 11 10 11 6 0 10 -2 10 -4z m-96
-22 c3 -8 2 -12 -4 -9 -6 3 -10 10 -10 16 0 14 7 11 14 -7z m1172 8 c6 -4 13
-15 17 -25 9 -25 95 -61 112 -47 10 9 14 -1 17 -48 l3 -60 -74 -6 c-95 -8
-253 -8 -358 1 l-82 6 3 31 c2 16 9 32 15 34 6 2 8 9 5 14 -4 6 -2 8 4 4 6 -3
13 -2 16 2 3 5 40 10 83 11 124 3 171 17 197 61 18 31 24 34 42 22z m1395 -15
c-10 -9 -11 -8 -5 6 3 10 9 15 12 12 3 -3 0 -11 -7 -18z m1366 -3 c-9 -9 -28
6 -21 18 4 6 10 6 17 -1 6 -6 8 -13 4 -17z m2043 1 c11 -13 10 -14 -4 -9 -9 3
-16 10 -16 15 0 13 6 11 20 -6z m-1956 -32 c-17 -17 -18 -17 -11 0 4 10 7 24
7 30 0 8 3 8 11 0 9 -9 7 -16 -7 -30z m2631 27 c3 -6 -1 -7 -9 -4 -18 7 -21
14 -7 14 6 0 13 -4 16 -10z m-6312 -40 c-3 -12 -8 -19 -11 -16 -5 6 5 36 12
36 2 0 2 -9 -1 -20z m-338 -1 c11 -17 -1 -21 -15 -4 -8 9 -8 15 -2 15 6 0 14
-5 17 -11z m5410 -9 c3 -5 1 -10 -4 -10 -6 0 -11 5 -11 10 0 6 2 10 4 10 3 0
8 -4 11 -10z m-5665 -16 c0 -8 -4 -12 -10 -9 -5 3 -10 10 -10 16 0 5 5 9 10 9
6 0 10 -7 10 -16z m1004 -49 l-7 -47 -81 6 c-44 4 -108 10 -141 13 l-60 7 40
7 c22 5 55 11 74 14 18 4 49 15 68 26 21 12 46 18 64 15 16 -2 32 0 35 6 12
19 15 -1 8 -47z m1693 43 c7 -5 17 -7 24 -3 6 4 14 3 18 -4 11 -17 277 -45
291 -31 3 3 23 3 45 -1 23 -3 33 -8 25 -11 -38 -14 -271 -30 -368 -24 -73 4
-100 3 -84 -4 27 -12 28 -20 2 -20 -13 0 -25 12 -35 36 -19 45 -19 44 1 44 9
0 14 6 11 13 -6 16 51 20 70 5z m-2460 -4 c-3 -3 -12 -4 -19 -1 -8 3 -5 6 6 6
11 1 17 -2 13 -5z m1967 -30 c14 2 26 -1 26 -5 0 -5 -16 -9 -35 -9 -32 0 -35
3 -34 28 0 25 1 26 9 5 6 -15 16 -21 34 -19z m3476 26 c0 -5 -5 -10 -11 -10
-5 0 -7 5 -4 10 3 6 8 10 11 10 2 0 4 -4 4 -10z m155 0 c-3 -5 -11 -10 -16
-10 -6 0 -7 5 -4 10 3 6 11 10 16 10 6 0 7 -4 4 -10z m1235 -1 c0 -5 -11 -9
-24 -9 -35 0 -56 -10 -56 -26 0 -21 -28 -28 -46 -13 -14 11 -18 10 -30 -5 -11
-15 -16 -17 -28 -7 -8 7 -19 11 -23 8 -15 -10 -84 -17 -79 -9 6 9 136 48 149
44 4 -1 7 4 7 11 0 8 21 12 65 13 36 1 65 -2 65 -7z m210 -1 c0 -11 -28 -10
-35 1 -3 6 4 9 15 8 11 -1 20 -5 20 -9z m-3894 -65 c-3 -4 -6 -1 -6 5 0 7 -5
12 -11 12 -6 0 -9 -7 -5 -15 3 -8 1 -15 -4 -15 -6 0 -10 2 -10 4 0 2 -3 12 -7
22 -4 12 -3 15 5 10 8 -4 12 0 12 11 0 15 3 14 16 -5 9 -13 13 -26 10 -29z
m-3191 -1 l-2 -28 73 -2 c54 -1 77 3 89 14 13 14 15 13 15 -8 0 -59 -9 -68
-64 -68 -51 1 -51 1 -29 19 22 18 22 18 -24 13 -32 -3 -48 -1 -54 9 -7 11 -9
11 -9 -2 0 -34 -85 -42 -95 -9 -4 12 -16 20 -28 21 -44 1 15 18 66 18 45 1 47
2 41 26 -4 18 -2 25 8 25 10 0 14 -9 13 -28z m30 18 c3 -5 1 -10 -4 -10 -6 0
-11 5 -11 10 0 6 2 10 4 10 3 0 8 -4 11 -10z m4235 -11 c0 -6 -4 -7 -10 -4 -5
3 -10 11 -10 16 0 6 5 7 10 4 6 -3 10 -11 10 -16z m-4145 1 c4 -6 -8 -10 -30
-10 -22 0 -34 4 -30 10 3 6 17 10 30 10 13 0 27 -4 30 -10z m2139 -6 c10 -10
16 -33 16 -65 l0 -49 78 -1 77 -1 -60 -14 c-33 -7 -89 -18 -125 -24 -124 -19
-135 -22 -142 -33 -5 -8 -8 -7 -8 4 0 11 -9 16 -28 17 -15 0 -32 2 -37 4 -6 2
-10 -1 -10 -7 0 -5 5 -8 10 -7 5 2 6 0 2 -4 -10 -10 -31 -14 -92 -15 -27 0
-95 -4 -150 -10 -55 -5 -122 -9 -150 -9 -27 0 -57 0 -65 0 -8 0 -36 -2 -62 -4
-37 -4 -48 -1 -48 10 0 8 -7 14 -15 14 -12 0 -15 14 -15 65 0 61 1 65 23 65
40 0 341 19 399 26 l57 6 5 -34 c6 -31 13 -83 15 -100 1 -5 15 -8 32 -8 l30 0
-6 58 c-4 31 -9 64 -11 73 -4 13 8 18 63 23 38 4 95 13 128 21 33 7 63 13 67
14 4 1 14 -6 22 -15z m684 -10 c-16 -8 -28 -16 -28 -17 0 -1 30 -2 66 -2 36 0
68 -3 70 -7 2 -4 29 -5 59 -4 31 2 57 0 60 -3 2 -4 -1 -8 -8 -9 -19 -2 -110
-23 -127 -29 -29 -11 -55 -11 -85 2 -16 8 -46 16 -65 18 -53 8 -148 45 -130
51 8 3 53 7 100 9 47 2 92 4 100 5 8 0 3 -6 -12 -14z m-3100 -14 c3 -9 0 -10
-9 -4 -8 5 -23 8 -34 6 l-20 -2 20 9 c25 12 37 9 43 -9z m2520 -5 c12 -14 29
-25 38 -25 10 0 14 -6 11 -14 -4 -10 -1 -13 8 -10 7 3 15 15 18 26 6 20 11 21
94 16 100 -6 243 -44 243 -65 0 -7 7 -13 16 -13 8 0 12 -5 9 -10 -4 -6 -11 -8
-16 -5 -5 4 -9 1 -9 -4 0 -22 -20 -10 -21 12 0 12 -3 16 -6 10 -2 -7 -14 -13
-26 -13 -17 0 -19 2 -8 9 12 8 8 11 -15 16 -16 3 -58 15 -93 27 -40 13 -65 17
-70 11 -15 -24 -55 -34 -122 -31 -65 3 -70 5 -75 28 -3 14 -8 33 -11 43 -6 25
10 21 35 -8z m-2737 -15 c24 1 53 1 64 1 19 -1 19 -1 -1 -16 -26 -17 -157 -16
-175 2 -9 9 -7 11 11 6 16 -4 26 -1 32 12 8 12 12 14 18 5 4 -7 26 -11 51 -10z
m736 3 c-3 -10 -8 -39 -12 -64 -6 -45 -7 -47 -43 -52 -20 -3 -51 -7 -68 -10
-36 -7 -122 14 -154 36 -21 14 -19 15 31 22 42 6 54 4 61 -9 5 -9 14 -16 19
-16 6 0 8 4 4 9 -3 5 0 13 5 16 6 4 15 17 20 30 9 23 73 53 118 54 18 1 22 -3
19 -16z m255 -8 c73 -4 143 -8 156 -11 24 -5 24 0 12 -119 0 -5 -5 -2 -11 8
-11 19 -31 14 -23 -6 2 -7 -4 -21 -15 -31 -18 -17 -29 -17 -218 -1 -215 17
-258 26 -174 35 60 6 58 3 76 104 6 36 8 38 35 33 16 -4 88 -9 162 -12z m5828
-26 c-20 -8 -70 0 -70 11 0 5 12 13 28 18 21 7 31 6 43 -7 15 -15 15 -17 -1
-22z m-5064 -52 c1 -37 6 -61 12 -60 6 2 10 -6 9 -16 -1 -17 -16 -19 -182 -26
-208 -8 -275 -2 -282 26 -3 10 -10 16 -15 13 -6 -4 -8 2 -3 15 4 12 2 21 -4
21 -6 0 -11 9 -11 20 0 11 -7 20 -15 20 -8 0 -15 -8 -15 -17 0 -25 -16 -47
-28 -39 -7 4 -6 14 2 31 7 14 12 36 10 50 l-2 25 261 0 262 0 1 -63z m-1831
33 c-3 -5 -13 -10 -21 -10 -8 0 -14 5 -14 10 0 6 9 10 21 10 11 0 17 -4 14
-10z m315 -5 c0 -1 -29 -13 -64 -26 -36 -12 -76 -32 -89 -45 -21 -19 -38 -23
-126 -26 -55 -2 -101 -1 -101 3 0 3 7 12 15 19 9 7 13 15 10 18 -2 3 9 15 27
28 29 22 38 23 129 18 55 -2 99 -1 99 3 0 4 23 9 50 10 28 1 50 0 50 -2z m135
-29 c-27 -13 -58 -33 -67 -44 -16 -20 -16 -22 6 -40 23 -18 23 -19 6 -30 -12
-7 -21 -8 -25 -2 -3 6 -17 10 -29 10 -13 0 -29 7 -36 15 -10 12 -10 15 0 15 9
0 10 3 1 14 -15 18 3 33 82 62 85 31 130 31 62 0z m3035 20 c0 -3 -4 -8 -10
-11 -5 -3 -10 -1 -10 4 0 6 5 11 10 11 6 0 10 -2 10 -4z m11 -39 c-17 -17 -24
-1 -9 22 11 18 14 19 16 5 2 -9 -1 -21 -7 -27z m94 13 l30 0 -33 -20 c-18 -11
-35 -27 -38 -35 -4 -8 -15 -15 -27 -15 -20 0 -20 0 -1 21 14 16 15 23 7 26 -7
3 -13 12 -13 20 0 11 6 14 23 9 12 -3 36 -6 52 -6z m240 -40 c-11 -5 -27 -9
-35 -9 -9 0 -8 4 5 9 11 5 27 9 35 9 9 0 8 -4 -5 -9z m2512 -6 c-10 -10 -107
-12 -107 -2 0 6 11 8 25 6 14 -3 28 -2 30 2 2 4 16 5 30 2 14 -2 24 -6 22 -8z
m-3653 -13 c3 -4 -6 -6 -19 -3 -14 2 -25 6 -25 8 0 8 39 4 44 -5z m271 0 c3
-5 1 -12 -5 -16 -5 -3 -10 1 -10 9 0 18 6 21 15 7z m625 -1 c0 -5 -5 -10 -11
-10 -5 0 -7 5 -4 10 3 6 8 10 11 10 2 0 4 -4 4 -10z m-1087 -25 c3 -6 -4 -12
-14 -12 -10 -1 -19 4 -19 11 0 16 28 17 33 1z m68 -8 c-10 -9 -11 -8 -5 6 3
10 9 15 12 12 3 -3 0 -11 -7 -18z m-121 -8 c0 -11 -4 -18 -10 -14 -5 3 -7 12
-3 20 7 21 13 19 13 -6z m1055 11 c-3 -5 -11 -10 -16 -10 -6 0 -7 5 -4 10 3 6
11 10 16 10 6 0 7 -4 4 -10z m-574 -20 c-24 -20 -81 -28 -81 -11 0 6 19 14 43
19 61 14 65 13 38 -8z m649 10 c-20 -13 -43 -13 -35 0 3 6 16 10 28 10 18 0
19 -2 7 -10z m-2853 -27 c-6 -13 -8 -25 -5 -28 8 -8 150 -23 287 -31 69 -3
118 -10 110 -14 -13 -7 -131 -2 -327 15 -72 7 -82 6 -76 -8 4 -11 27 -17 87
-21 45 -4 115 -9 156 -13 l73 -6 -53 -18 c-29 -11 -66 -19 -81 -19 -15 0 -28
-4 -28 -10 0 -5 -7 -7 -15 -4 -8 4 -21 2 -28 -4 -19 -15 -67 -24 -67 -12 0 6
-11 15 -25 20 -15 6 -25 17 -25 29 0 11 -5 23 -10 26 -15 9 -120 -15 -155 -36
-20 -12 -36 -15 -45 -9 -12 8 -12 10 3 16 9 3 14 10 11 15 -3 5 -11 6 -17 3
-9 -5 -9 -4 0 6 6 7 9 19 6 28 -6 15 10 15 172 -1 11 -1 21 5 23 16 3 14 -4
17 -37 17 -22 0 -42 4 -45 9 -3 4 12 7 34 5 31 -3 38 0 33 11 -7 20 14 44 37
42 15 -1 16 -5 7 -24z m1270 2 c0 -8 -4 -15 -8 -15 -11 0 -20 16 -12 24 11 11
20 7 20 -9z m293 6 c0 -5 -6 -14 -14 -20 -12 -10 -13 -8 -9 8 5 21 23 30 23
12z m-1715 -25 c25 -13 27 -16 9 -16 -11 0 -24 3 -28 8 -4 4 -20 7 -34 8 -53
2 -62 4 -62 15 0 15 76 5 115 -15z m1859 9 c3 -8 1 -15 -4 -15 -6 0 -10 7 -10
15 0 8 2 15 4 15 2 0 6 -7 10 -15z m96 -5 c0 -5 -4 -10 -10 -10 -5 0 -10 5
-10 10 0 6 5 10 10 10 6 0 10 -4 10 -10z m440 -20 c0 -5 -8 -10 -17 -10 -15 0
-16 2 -3 10 19 12 20 12 20 0z m44 -6 c6 -15 4 -15 -11 -3 -10 7 -20 15 -22
16 -2 2 3 3 11 3 9 0 19 -7 22 -16z m-680 -3 c26 5 52 6 57 3 21 -13 5 -20
-48 -22 -42 -2 -62 -8 -75 -22 -10 -11 -15 -20 -11 -20 4 -1 27 -5 51 -9 23
-5 42 -4 42 0 0 5 -7 9 -16 9 -8 0 -12 5 -9 10 3 6 18 10 33 10 21 0 28 -5 28
-20 0 -11 -8 -22 -18 -26 -10 -3 -15 -11 -11 -20 7 -18 -21 -19 -36 0 -9 11
-36 13 -123 9 -96 -4 -110 -3 -105 11 3 8 1 17 -6 20 -7 2 -1 5 13 6 72 3 133
10 138 15 16 16 -21 22 -88 15 -51 -5 -79 -4 -87 4 -9 8 12 12 80 14 50 2 99
7 107 12 8 5 19 5 25 0 5 -5 32 -4 59 1z m539 -17 c10 -10 -12 -44 -28 -44 -8
0 -15 -4 -15 -9 0 -5 -9 -7 -20 -4 -26 7 -26 23 1 23 11 0 18 4 14 10 -3 5
-12 7 -20 3 -8 -3 -15 0 -15 5 0 6 -12 13 -27 15 -16 2 2 5 38 6 36 0 69 -2
72 -5z m-1173 -24 c0 -12 -191 -12 -211 1 -9 5 27 9 99 9 67 0 112 -4 112 -10z
m-616 -102 c-3 -10 -11 -18 -19 -18 -7 0 -20 -3 -29 -6 -9 -3 -16 -1 -16 4 0
6 8 13 18 16 18 5 -45 -2 -88 -10 l-25 -4 29 24 c15 13 46 29 68 37 21 7 42
17 45 23 9 14 24 -45 17 -66z m581 62 c4 -6 11 -8 16 -5 5 4 9 -1 9 -9 0 -8
-9 -18 -20 -21 -11 -3 -20 -10 -20 -15 0 -4 -10 -10 -21 -13 -14 -4 -20 -11
-16 -21 5 -12 1 -13 -16 -7 -12 4 -28 6 -35 4 -8 -3 -10 1 -6 12 5 11 2 16 -7
15 -8 -1 -29 -2 -46 -1 -25 1 -33 5 -33 20 0 23 25 34 48 22 9 -4 31 -11 47
-15 l30 -7 -30 25 -30 25 62 1 c34 0 65 -5 68 -10z m-455 -20 c0 -5 -16 -10
-36 -10 -21 0 -33 4 -29 10 3 6 19 10 36 10 16 0 29 -4 29 -10z m-485 -30 c10
-11 14 -20 9 -20 -5 0 -15 9 -22 20 -7 11 -11 20 -9 20 2 0 12 -9 22 -20z"/>
<path d="M2224 8968 c-7 -11 9 -14 56 -8 l45 6 -48 5 c-27 2 -51 1 -53 -3z"/>
<path d="M3507 8494 c-4 -4 -7 -14 -7 -23 0 -11 3 -12 11 -4 6 6 10 16 7 23
-2 6 -7 8 -11 4z"/>
<path d="M3594 8459 c-3 -6 -2 -15 3 -20 5 -5 9 -1 9 11 0 23 -2 24 -12 9z"/>
<path d="M3618 8435 c-3 -25 1 -40 14 -52 11 -10 18 -12 18 -5 0 7 7 12 16 12
11 0 14 5 10 16 -3 9 -6 18 -6 20 0 2 -7 4 -15 4 -8 0 -15 6 -15 14 0 32 -18
24 -22 -9z"/>
<path d="M3430 8419 c-10 -7 -11 -12 -4 -15 6 -3 9 -16 6 -29 -3 -20 -1 -24
12 -19 12 4 15 13 10 28 -4 11 -7 27 -7 34 0 6 -1 12 -1 12 -1 0 -8 -5 -16
-11z"/>
<path d="M3470 8310 c0 -5 5 -10 11 -10 5 0 7 5 4 10 -3 6 -8 10 -11 10 -2 0
-4 -4 -4 -10z"/>
<path d="M7294 4290 c-32 -38 -40 -54 -37 -77 6 -40 42 -44 45 -5 2 42 9 68
29 105 19 35 4 26 -37 -23z"/>
<path d="M7179 4139 c-7 -14 -9 -41 -5 -73 4 -28 10 -94 12 -146 3 -52 8 -97
10 -99 2 -2 4 73 4 167 0 95 -2 172 -5 172 -2 0 -9 -10 -16 -21z"/>
<path d="M6949 4038 c-5 -17 -4 -50 3 -54 4 -3 8 9 8 25 0 17 -2 31 -5 31 -3
0 -5 -1 -6 -2z"/>
<path d="M6477 3863 c-10 -9 -8 -33 2 -33 5 0 11 9 14 20 5 20 -3 26 -16 13z"/>
<path d="M7283 3854 c-5 -13 -7 -13 -14 -2 -7 10 -9 9 -9 -4 0 -14 8 -18 33
-17 17 0 27 3 20 5 -7 3 -9 12 -6 20 3 8 0 14 -6 14 -7 0 -14 -7 -18 -16z"/>
<path d="M6735 3850 c-4 -6 7 -10 25 -10 18 0 29 4 25 10 -3 6 -15 10 -25 10
-10 0 -22 -4 -25 -10z"/>
<path d="M5320 3840 c0 -5 5 -10 10 -10 6 0 10 5 10 10 0 6 -4 10 -10 10 -5 0
-10 -4 -10 -10z"/>
<path d="M5397 3838 c-7 -4 -20 -5 -29 -2 -10 3 -18 1 -18 -5 0 -11 20 -15 49
-12 7 2 10 -2 6 -9 -4 -7 5 -6 22 3 18 10 34 12 44 7 11 -6 16 -5 16 5 0 15
-70 25 -90 13z"/>
<path d="M6430 3839 c0 -5 5 -7 10 -4 6 3 10 8 10 11 0 2 -4 4 -10 4 -5 0 -10
-5 -10 -11z"/>
<path d="M6808 3843 c7 -3 16 -2 19 1 4 3 -2 6 -13 5 -11 0 -14 -3 -6 -6z"/>
<path d="M6977 3773 c-4 -3 -7 -11 -7 -17 0 -6 5 -5 12 2 6 6 9 14 7 17 -3 3
-9 2 -12 -2z"/>
<path d="M7120 3768 c0 -9 -3 -18 -7 -21 -5 -2 -3 -2 4 -1 6 2 14 -5 17 -14 2
-9 3 -5 2 10 -2 30 -16 51 -16 26z"/>
<path d="M7216 3725 c4 -8 8 -15 10 -15 2 0 4 7 4 15 0 8 -4 15 -10 15 -5 0
-7 -7 -4 -15z"/>
<path d="M7088 3723 c7 -3 16 -2 19 1 4 3 -2 6 -13 5 -11 0 -14 -3 -6 -6z"/>
<path d="M7565 3710 c-3 -5 1 -10 9 -10 9 0 16 5 16 10 0 6 -4 10 -9 10 -6 0
-13 -4 -16 -10z"/>
<path d="M9397 3668 c4 -22 3 -29 -5 -24 -7 4 -12 15 -13 24 0 12 -3 11 -9 -5
-10 -25 -30 -31 -30 -10 0 9 -3 8 -9 -2 -5 -7 -11 -9 -14 -4 -8 12 -70 15 -99
4 -20 -7 -18 -9 14 -15 20 -4 38 -13 40 -21 2 -12 25 -16 100 -20 86 -3 96 -2
91 12 -5 13 -2 15 15 11 12 -4 22 -2 22 3 0 5 -5 9 -11 9 -5 0 -8 4 -5 9 11
16 85 11 96 -7 9 -15 9 -16 10 -1 0 22 -20 29 -83 29 -34 0 -63 7 -84 20 l-32
19 6 -31z"/>
<path d="M8026 3675 c-3 -8 -1 -15 4 -15 6 0 10 7 10 15 0 8 -2 15 -4 15 -2 0
-6 -7 -10 -15z"/>
<path d="M8337 3683 c-10 -3 -17 -12 -15 -21 3 -14 16 -17 65 -18 66 -2 86 5
74 24 -7 12 -81 24 -81 13 0 -3 -12 -11 -26 -18 -26 -12 -26 -12 -9 7 10 11
16 19 14 19 -2 -1 -12 -3 -22 -6z"/>
<path d="M8991 3664 c0 -11 3 -14 6 -6 3 7 2 16 -1 19 -3 4 -6 -2 -5 -13z"/>
<path d="M9070 3672 c0 -4 9 -8 20 -8 11 0 20 4 20 8 0 4 -9 8 -20 8 -11 0
-20 -4 -20 -8z"/>
<path d="M9128 3673 c7 -3 16 -2 19 1 4 3 -2 6 -13 5 -11 0 -14 -3 -6 -6z"/>
<path d="M8960 3650 c0 -5 5 -10 11 -10 5 0 7 5 4 10 -3 6 -8 10 -11 10 -2 0
-4 -4 -4 -10z"/>
<path d="M9075 3630 c-3 -5 -1 -10 4 -10 6 0 11 5 11 10 0 6 -2 10 -4 10 -3 0
-8 -4 -11 -10z"/>
<path d="M9525 3629 c-11 -17 1 -21 15 -4 8 9 8 15 2 15 -6 0 -14 -5 -17 -11z"/>
<path d="M8715 3620 c-3 -5 -1 -10 4 -10 6 0 11 5 11 10 0 6 -2 10 -4 10 -3 0
-8 -4 -11 -10z"/>
<path d="M9750 3367 c0 -7 4 -18 9 -26 8 -12 12 -12 25 -2 9 8 16 19 16 25 0
6 -5 4 -10 -4 -5 -8 -10 -10 -10 -4 0 7 -7 14 -15 18 -8 3 -15 0 -15 -7z"/>
<path d="M9690 3335 c-10 -12 -10 -15 3 -15 8 0 17 7 21 15 3 8 2 15 -3 15 -5
0 -14 -7 -21 -15z"/>
<path d="M5785 4150 c-3 -5 -1 -10 4 -10 6 0 11 5 11 10 0 6 -2 10 -4 10 -3 0
-8 -4 -11 -10z"/>
<path d="M5800 4011 c0 -6 4 -13 10 -16 6 -3 7 1 4 9 -7 18 -14 21 -14 7z"/>
<path d="M6843 4110 c-1 -11 2 -18 8 -15 11 7 12 35 1 35 -4 0 -8 -9 -9 -20z"/>
<path d="M5956 3975 c-3 -8 -1 -15 4 -15 13 0 22 18 11 24 -5 3 -11 -1 -15 -9z"/>
<path d="M5500 3990 c0 -5 5 -10 11 -10 5 0 7 5 4 10 -3 6 -8 10 -11 10 -2 0
-4 -4 -4 -10z"/>
<path d="M4587 3908 c-8 -30 -1 -35 12 -9 6 11 7 22 2 25 -5 3 -11 -4 -14 -16z"/>
<path d="M4690 3901 c0 -5 5 -13 10 -16 6 -3 10 -2 10 4 0 5 -4 13 -10 16 -5
3 -10 2 -10 -4z"/>
<path d="M10310 3732 c0 -5 7 -13 16 -16 10 -4 14 -1 12 6 -5 15 -28 23 -28
10z"/>
<path d="M2845 3290 c-3 -5 0 -10 7 -10 7 0 24 -3 38 -6 17 -5 22 -3 15 4 -16
16 -53 24 -60 12z"/>
<path d="M2855 3240 c-3 -5 1 -10 9 -10 8 0 18 5 21 10 3 6 -1 10 -9 10 -8 0
-18 -4 -21 -10z"/>
<path d="M3155 3073 c-11 -3 -26 -10 -34 -17 -11 -9 -5 -12 30 -16 59 -7 139
0 139 11 0 22 -81 35 -135 22z"/>
<path d="M3336 3005 c-3 -8 -1 -15 4 -15 6 0 10 7 10 15 0 8 -2 15 -4 15 -2 0
-6 -7 -10 -15z"/>
<path d="M2775 3000 c3 -5 14 -10 23 -10 15 0 15 2 2 10 -20 13 -33 13 -25 0z"/>
<path d="M3005 2940 c27 -12 43 -12 25 0 -8 5 -22 9 -30 9 -10 0 -8 -3 5 -9z"/>
<path d="M7625 2610 c3 -5 8 -10 11 -10 2 0 4 5 4 10 0 6 -5 10 -11 10 -5 0
-7 -4 -4 -10z"/>
<path d="M7932 2654 c-7 -8 -8 -14 -3 -14 10 0 25 19 20 25 -2 1 -10 -3 -17
-11z"/>
<path d="M3045 2412 c6 -5 30 -12 55 -16 28 -5 41 -4 35 2 -5 6 -30 13 -55 17
-29 5 -42 4 -35 -3z"/>
<path d="M2835 2230 c-3 -5 -1 -10 4 -10 6 0 11 5 11 10 0 6 -2 10 -4 10 -3 0
-8 -4 -11 -10z"/>
<path d="M2185 2160 c3 -5 8 -10 11 -10 2 0 4 5 4 10 0 6 -5 10 -11 10 -5 0
-7 -4 -4 -10z"/>
<path d="M880 1950 c0 -5 7 -10 16 -10 8 0 12 5 9 10 -3 6 -10 10 -16 10 -5 0
-9 -4 -9 -10z"/>
<path d="M2275 1970 c-3 -5 1 -10 9 -10 9 0 16 5 16 10 0 6 -4 10 -9 10 -6 0
-13 -4 -16 -10z"/>
<path d="M625 10790 c11 -5 16 -9 10 -10 -5 0 -1 -7 9 -15 19 -14 18 -15 -13
-15 -26 0 -32 -3 -27 -16 3 -9 6 -17 6 -19 0 -3 18 -9 41 -15 33 -9 38 -14 29
-25 -18 -22 -5 -31 60 -44 33 -7 60 -16 60 -22 0 -5 6 -9 14 -9 8 0 18 -5 22
-11 5 -8 -1 -10 -20 -7 -14 3 -29 1 -32 -3 -3 -5 13 -9 35 -9 22 0 43 5 46 10
4 6 15 8 26 5 11 -4 26 0 36 10 13 14 27 16 66 11 42 -6 49 -5 44 8 -4 11 -1
16 11 16 16 1 16 1 -1 11 -9 6 -15 15 -11 20 7 13 34 -8 34 -26 0 -15 33 -24
98 -27 24 -1 46 -6 49 -11 4 -6 -12 -8 -41 -5 -25 3 -49 2 -51 -2 -6 -9 10
-15 68 -25 60 -10 42 -22 -31 -20 -51 1 -76 7 -98 22 -38 27 -96 39 -87 18 4
-11 -2 -15 -21 -15 -14 0 -26 -4 -26 -10 0 -5 -11 -10 -25 -10 -14 0 -25 -4
-25 -10 0 -5 9 -10 21 -10 11 0 18 -4 15 -9 -3 -5 9 -14 27 -21 28 -10 30 -13
12 -19 -15 -6 -11 -9 22 -14 22 -4 46 -14 53 -22 7 -8 22 -15 34 -15 23 0 61
-20 38 -20 -7 0 -10 -4 -7 -10 9 -15 25 -12 25 5 0 8 6 15 13 15 17 0 44 33
39 48 -5 17 9 15 36 -4 13 -9 30 -13 39 -10 8 4 21 2 27 -3 7 -6 31 -13 54
-17 34 -5 42 -4 42 9 0 11 10 15 35 14 25 -1 34 -5 31 -14 -3 -7 -1 -13 5 -13
6 0 7 -4 4 -10 -4 -6 6 -10 22 -10 37 0 118 -25 118 -36 0 -5 -28 -10 -62 -12
-35 -2 -63 -7 -63 -12 0 -6 5 -10 10 -10 6 0 23 -9 38 -19 32 -23 107 -34 148
-21 16 4 22 9 12 9 -20 1 -18 24 5 49 13 14 14 21 5 30 -9 9 -8 12 5 12 9 0
17 6 17 14 0 9 -19 15 -61 20 -33 3 -66 9 -72 13 -14 9 -16 35 -4 44 15 11 -5
37 -36 47 l-32 10 38 1 c25 1 36 5 31 12 -3 6 -19 9 -35 5 -32 -6 -103 20 -94
35 9 13 112 5 208 -17 43 -10 32 11 -16 30 -49 18 -69 21 -47 5 12 -9 11 -9
-5 -3 -11 4 -38 7 -60 7 -62 -1 -227 25 -239 37 -8 9 2 10 39 4 28 -3 60 -10
71 -15 14 -5 28 -3 39 5 16 12 15 14 -15 20 -31 6 -32 7 -15 20 17 12 15 14
-21 21 l-39 9 60 7 c42 5 64 13 76 28 10 12 29 21 43 21 13 0 28 5 31 10 4 7
-154 10 -467 9 -273 0 -465 -4 -453 -9z m373 -38 c13 -4 22 -11 20 -17 -2 -5
11 -13 27 -16 21 -5 24 -7 9 -8 -35 -2 -84 11 -78 20 3 5 -4 9 -15 9 -12 0
-21 5 -21 10 0 11 22 12 58 2z m369 -182 c12 0 25 -5 29 -12 9 -15 -71 -4 -91
12 -23 19 -6 32 18 15 12 -8 31 -15 44 -15z m93 -10 c0 -13 -11 -13 -30 0 -12
8 -11 10 8 10 12 0 22 -4 22 -10z m-305 -50 c3 -5 -1 -10 -9 -10 -9 0 -16 5
-16 10 0 6 4 10 9 10 6 0 13 -4 16 -10z"/>
<path d="M3620 10797 c3 -3 19 -6 35 -8 17 -2 38 -10 48 -18 13 -11 46 -16
110 -17 51 -2 124 -5 162 -9 85 -7 185 -12 181 -8 -1 1 -23 13 -48 27 -47 25
-98 28 -228 11 -33 -4 -77 -2 -110 5 -64 14 -157 24 -150 17z"/>
<path d="M4722 10775 c12 -14 29 -25 37 -25 9 0 22 -9 29 -20 15 -24 57 -26
66 -4 8 21 10 19 -43 30 -25 5 -46 15 -49 23 -3 10 2 12 22 7 15 -4 26 -2 26
4 0 5 -24 10 -55 10 l-55 0 22 -25z"/>
<path d="M5970 10791 l-55 -6 85 -22 c47 -12 123 -25 170 -29 47 -3 105 -11
130 -16 42 -10 180 -20 180 -13 0 11 -112 36 -181 40 -112 8 -147 14 -155 27
-4 5 0 14 7 19 15 10 -90 10 -181 0z"/>
<path d="M6483 10793 c9 -2 23 -2 30 0 6 3 -1 5 -18 5 -16 0 -22 -2 -12 -5z"/>
<path d="M6558 10784 c22 -15 42 -12 42 7 0 5 -15 9 -32 9 -32 0 -32 0 -10
-16z"/>
<path d="M6620 10783 c0 -8 16 -21 35 -29 19 -8 35 -21 35 -29 0 -9 9 -15 23
-15 12 -1 33 -7 47 -14 l25 -14 -37 -7 c-21 -4 -99 -5 -175 -2 -157 6 -141 -6
29 -22 60 -6 114 -13 119 -17 6 -4 2 -14 -10 -25 -30 -28 -26 -44 14 -56 38
-12 45 -7 18 12 -14 10 -9 13 33 20 46 7 47 8 25 20 -29 15 -12 30 22 19 72
-23 362 -41 350 -21 -3 6 18 6 56 2 40 -4 61 -3 61 3 0 6 -10 12 -22 14 -12 2
-23 9 -26 16 -3 9 2 10 22 2 l26 -10 0 63 c0 37 -5 69 -12 76 -10 11 -10 13 0
7 7 -4 12 -1 12 9 0 14 -34 16 -335 14 -281 -1 -335 -4 -335 -16z m270 -28
c31 -12 32 -14 10 -14 -36 -1 -71 10 -64 20 7 11 11 11 54 -6z m86 5 c15 -6
25 -13 22 -15 -3 -3 -20 1 -39 9 -38 17 -25 21 17 6z m213 -26 c2 -2 -19 -4
-48 -4 -29 0 -50 4 -47 9 5 8 86 4 95 -5z m-379 -14 c13 -8 13 -10 -2 -10 -9
0 -20 5 -23 10 -8 13 5 13 25 0z m203 -27 c-7 -2 -21 -2 -30 0 -10 3 -4 5 12
5 17 0 24 -2 18 -5z m216 -9 c2 -2 2 -7 -2 -10 -9 -9 -67 6 -67 18 0 9 58 2
69 -8z"/>
<path d="M5128 10763 c6 -2 18 -2 25 0 6 3 1 5 -13 5 -14 0 -19 -2 -12 -5z"/>
<path d="M1695 10740 c-3 -5 1 -10 10 -10 9 0 13 5 10 10 -3 6 -8 10 -10 10
-2 0 -7 -4 -10 -10z"/>
<path d="M4971 10711 c-11 -7 -9 -10 8 -13 46 -7 19 -23 -46 -28 l-68 -5 50
-8 c28 -5 69 -17 91 -27 24 -10 53 -15 69 -12 20 3 26 2 21 -7 -4 -7 -3 -18 3
-25 9 -11 6 -15 -11 -20 -33 -8 -50 -7 -44 3 4 5 -3 7 -14 4 -25 -7 -26 -23
-2 -24 47 -4 134 -5 114 -1 -16 2 -22 8 -18 19 3 8 6 19 6 24 0 5 11 9 25 9
54 0 12 32 -60 46 -47 9 -32 25 25 26 51 1 33 17 -20 18 -19 1 -53 7 -75 15
-22 8 -40 15 -40 15 0 0 -6 -4 -14 -9z"/>
<path d="M5920 10705 c11 -13 8 -15 -21 -15 -30 -1 -32 -2 -14 -12 11 -6 42
-10 70 -9 28 1 71 -5 96 -13 25 -9 74 -15 114 -15 l70 1 -68 14 c-37 7 -87 15
-110 16 -29 2 -42 8 -42 18 0 14 -35 26 -84 29 -20 1 -21 -1 -11 -14z"/>
<path d="M4878 10703 c7 -3 16 -2 19 1 4 3 -2 6 -13 5 -11 0 -14 -3 -6 -6z"/>
<path d="M4798 10692 c-16 -2 -28 -8 -28 -13 0 -10 13 -10 50 0 31 9 15 18
-22 13z"/>
<path d="M2418 10673 c7 -3 16 -2 19 1 4 3 -2 6 -13 5 -11 0 -14 -3 -6 -6z"/>
<path d="M7320 10666 c0 -8 3 -21 6 -30 5 -14 9 -13 32 2 14 9 35 16 46 14 21
-3 21 -2 2 13 -25 19 -86 20 -86 1z"/>
<path d="M3776 10651 c-6 -10 43 -26 52 -16 7 7 2 11 -25 19 -12 4 -24 3 -27
-3z"/>
<path d="M5803 10653 c-48 -5 -57 -23 -19 -41 50 -22 185 -43 296 -46 116 -3
175 -18 166 -43 -3 -6 2 -14 10 -17 24 -9 54 -7 54 3 0 14 -64 61 -83 61 -9 0
-18 4 -21 8 -3 5 -51 12 -107 16 -57 3 -116 13 -132 21 -17 8 -38 15 -47 15
-9 0 -25 7 -36 15 -10 8 -23 14 -29 13 -5 -1 -29 -3 -52 -5z"/>
<path d="M1568 10643 c12 -2 32 -2 45 0 12 2 2 4 -23 4 -25 0 -35 -2 -22 -4z"/>
<path d="M7470 10641 c8 -5 33 -13 55 -17 22 -3 48 -12 58 -19 18 -13 18 -13
0 -24 -16 -9 -16 -10 7 -11 14 -1 42 -3 63 -5 40 -4 50 9 15 21 -13 4 -33 15
-45 24 -13 10 -44 21 -70 25 -27 3 -59 9 -73 12 -19 3 -22 2 -10 -6z"/>
<path d="M6268 10633 c7 -3 16 -2 19 1 4 3 -2 6 -13 5 -11 0 -14 -3 -6 -6z"/>
<path d="M6355 10631 c-14 -6 -8 -9 29 -14 49 -7 66 -3 66 14 0 11 -66 11 -95
0z"/>
<path d="M7363 10623 c9 -2 23 -2 30 0 6 3 -1 5 -18 5 -16 0 -22 -2 -12 -5z"/>
<path d="M7330 10600 c0 -6 17 -10 37 -10 43 0 41 5 -4 13 -19 4 -33 2 -33 -3z"/>
<path d="M7471 10579 c13 -8 88 -14 78 -5 -2 2 -24 6 -48 9 -29 4 -40 2 -30
-4z"/>
<path d="M1747 10564 c-11 -11 -8 -20 6 -22 6 -1 23 -4 37 -6 14 -2 28 -5 33
-5 4 -1 7 -9 8 -18 0 -11 3 -13 6 -5 2 6 17 12 31 13 l27 1 -29 10 c-20 7 -24
13 -15 18 7 5 -10 7 -39 6 -28 -2 -53 1 -54 6 -2 5 -7 6 -11 2z"/>
<path d="M7070 10551 c0 -9 24 -21 43 -21 6 0 2 7 -9 15 -22 17 -34 19 -34 6z"/>
<path d="M4938 10543 c7 -3 16 -2 19 1 4 3 -2 6 -13 5 -11 0 -14 -3 -6 -6z"/>
<path d="M6011 10540 c24 -14 160 -33 169 -23 5 4 -11 9 -35 10 -25 1 -53 7
-64 13 -26 13 -93 14 -70 0z"/>
<path d="M7590 10540 c-7 -5 2 -10 25 -14 20 -4 39 -5 42 -3 8 9 -54 25 -67
17z"/>
<path d="M7774 10529 c-8 -14 14 -29 44 -29 24 0 28 10 10 28 -15 15 -45 16
-54 1z"/>
<path d="M5330 10520 c0 -8 69 -24 76 -18 2 2 -14 9 -36 15 -22 5 -40 7 -40 3z"/>
<path d="M7490 10521 c0 -5 24 -15 53 -21 28 -7 60 -17 69 -21 22 -12 13 -35
-15 -44 -19 -6 -20 -8 -4 -12 9 -2 14 -9 11 -15 -5 -8 3 -9 27 -4 19 4 52 10
74 13 22 3 45 11 51 18 5 8 28 15 50 18 39 4 39 4 -8 5 -25 1 -67 11 -93 22
-26 11 -59 20 -74 20 -15 0 -36 7 -47 15 -21 16 -94 21 -94 6z m245 -71 c3 -5
-3 -10 -15 -10 -12 0 -18 5 -15 10 3 6 10 10 15 10 5 0 12 -4 15 -10z"/>
<path d="M6715 10500 c-3 -5 -1 -10 4 -10 6 0 11 5 11 10 0 6 -2 10 -4 10 -3
0 -8 -4 -11 -10z"/>
<path d="M4470 10490 c-9 -6 0 -12 29 -20 53 -14 59 -10 16 12 -19 9 -37 13
-45 8z"/>
<path d="M6003 10486 c-39 -6 -75 -14 -78 -18 -4 -4 13 -12 36 -18 24 -6 58
-16 76 -21 25 -8 41 -6 74 8 l43 19 -38 22 c-20 12 -38 21 -39 21 -1 -1 -34
-7 -74 -13z"/>
<path d="M6820 10482 c0 -5 19 -15 43 -22 l42 -13 -44 -8 c-24 -5 -47 -6 -52
-4 -4 3 -10 1 -14 -5 -4 -6 7 -10 28 -10 19 0 71 -13 117 -30 46 -16 89 -30
96 -30 24 0 7 35 -24 50 -17 8 -32 20 -32 27 0 6 -10 15 -22 19 -13 3 -29 11
-36 17 -16 13 -102 20 -102 9z"/>
<path d="M6355 10470 c3 -5 11 -10 16 -10 6 0 7 5 4 10 -3 6 -11 10 -16 10 -6
0 -7 -4 -4 -10z"/>
<path d="M898 10463 c7 -3 16 -2 19 1 4 3 -2 6 -13 5 -11 0 -14 -3 -6 -6z"/>
<path d="M4575 10460 c19 -8 83 -14 74 -6 -2 2 -24 6 -49 9 -30 4 -38 3 -25
-3z"/>
<path d="M5520 10441 c-21 -6 -13 -9 40 -20 36 -7 74 -15 85 -18 l20 -4 -20
13 c-20 13 -86 38 -95 37 -3 -1 -16 -4 -30 -8z"/>
<path d="M4758 10433 c12 -2 30 -2 40 0 9 3 -1 5 -23 4 -22 0 -30 -2 -17 -4z"/>
<path d="M7870 10432 c0 -5 -12 -13 -27 -19 -23 -9 -8 -11 82 -12 74 0 105 2
95 9 -8 5 -41 10 -72 10 -32 0 -58 5 -58 10 0 6 -4 10 -10 10 -5 0 -10 -4 -10
-8z"/>
<path d="M6115 10420 c3 -5 10 -10 16 -10 5 0 9 5 9 10 0 6 -7 10 -16 10 -8 0
-12 -4 -9 -10z"/>
<path d="M6458 10423 c7 -3 16 -2 19 1 4 3 -2 6 -13 5 -11 0 -14 -3 -6 -6z"/>
<path d="M6565 10414 c22 -16 35 -18 35 -5 0 5 -12 11 -27 14 -26 5 -26 4 -8
-9z"/>
<path d="M4983 10413 c9 -2 23 -2 30 0 6 3 -1 5 -18 5 -16 0 -22 -2 -12 -5z"/>
<path d="M2340 10401 l-65 -6 49 -7 c66 -11 116 -10 116 1 0 8 -29 24 -33 19
-1 -1 -31 -4 -67 -7z"/>
<path d="M7360 10401 l-35 -7 50 -8 c28 -4 66 -14 85 -22 19 -8 61 -17 95 -20
56 -5 59 -4 41 10 -11 9 -35 16 -53 16 -18 0 -55 9 -83 20 -28 11 -54 19 -58
19 -4 -1 -23 -5 -42 -8z"/>
<path d="M6090 10390 c0 -5 10 -10 23 -10 18 0 19 2 7 10 -19 13 -30 13 -30 0z"/>
<path d="M6638 10383 c7 -3 16 -2 19 1 4 3 -2 6 -13 5 -11 0 -14 -3 -6 -6z"/>
<path d="M6858 10373 c7 -3 16 -2 19 1 4 3 -2 6 -13 5 -11 0 -14 -3 -6 -6z"/>
<path d="M1140 10345 c14 -8 32 -14 40 -14 8 0 0 6 -19 14 -42 19 -54 19 -21
0z"/>
<path d="M1955 10350 c-10 -15 4 -30 28 -31 18 0 19 -2 5 -7 -27 -11 -7 -29
42 -37 25 -4 63 -13 85 -20 60 -19 125 -27 125 -15 0 5 -7 10 -15 10 -8 0 -15
5 -15 10 0 6 -10 10 -22 10 -13 0 -34 6 -48 13 -14 7 -51 21 -82 31 -31 9 -62
24 -69 32 -14 16 -25 18 -34 4z"/>
<path d="M2015 10340 c27 -12 43 -12 25 0 -8 5 -22 9 -30 9 -10 0 -8 -3 5 -9z"/>
<path d="M7067 10330 c6 -24 21 -28 138 -34 89 -5 89 -5 50 10 -34 13 -167 44
-187 44 -3 0 -4 -9 -1 -20z"/>
<path d="M7510 10312 c-8 -2 -23 -11 -32 -20 -17 -14 -17 -16 0 -28 15 -12 14
-13 -11 -14 -16 0 -26 -4 -22 -10 3 -5 20 -10 36 -10 18 0 28 4 24 10 -4 6 10
10 35 10 46 0 46 14 0 23 -35 8 -40 24 -7 29 16 2 18 5 7 9 -8 3 -22 4 -30 1z"/>
<path d="M7330 10279 c0 -11 38 -11 65 0 15 6 8 8 -22 8 -24 0 -43 -4 -43 -8z"/>
<path d="M2078 10178 c16 -16 117 -48 168 -53 29 -2 72 -9 96 -15 23 -5 54 -9
68 -9 22 0 20 3 -15 19 -22 10 -53 19 -70 20 -16 0 -41 7 -55 15 l-25 14 25 1
c14 0 30 4 37 8 7 4 -44 8 -113 8 -72 1 -121 -3 -116 -8z m159 -14 c-3 -3 -12
-4 -19 -1 -8 3 -5 6 6 6 11 1 17 -2 13 -5z"/>
<path d="M6600 10180 c0 -5 6 -10 14 -10 7 0 28 -3 45 -6 24 -5 31 -3 31 10 0
12 -10 16 -45 16 -25 0 -45 -4 -45 -10z"/>
<path d="M2495 10090 c-3 -5 -1 -10 4 -10 6 0 11 5 11 10 0 6 -2 10 -4 10 -3
0 -8 -4 -11 -10z"/>
<path d="M2560 10059 c0 -5 -5 -7 -11 -3 -7 4 -10 -1 -7 -12 2 -13 18 -23 53
-31 27 -7 56 -15 65 -19 8 -3 56 -7 105 -9 50 -1 106 -5 125 -9 19 -3 10 1
-20 10 -30 8 -58 21 -62 27 -4 7 -8 9 -8 5 0 -3 -24 2 -53 12 -30 11 -63 16
-75 13 -12 -3 -28 0 -36 6 -10 8 -16 9 -21 1 -9 -15 -35 -12 -35 5 0 8 -4 15
-10 15 -5 0 -10 -5 -10 -11z"/>
<path d="M2868 10013 c7 -3 16 -2 19 1 4 3 -2 6 -13 5 -11 0 -14 -3 -6 -6z"/>
<path d="M3756 9985 c-7 -19 4 -19 40 0 l29 15 -31 0 c-19 0 -34 -6 -38 -15z"/>
<path d="M2593 9968 c1 -6 -7 -14 -17 -16 -10 -2 -28 -13 -39 -23 l-21 -19 22
0 c12 0 22 -5 22 -11 0 -8 -13 -9 -42 -3 -46 9 -114 9 -163 1 -16 -3 -52 -9
-80 -12 -27 -4 -59 -11 -70 -15 -11 -5 -33 -11 -49 -12 -37 -4 -48 -28 -13
-28 14 0 32 -7 41 -15 19 -19 32 -19 40 1 5 14 15 15 54 11 l47 -7 -24 21
c-19 15 -22 22 -12 28 16 10 132 23 139 16 3 -3 -4 -5 -16 -5 -12 0 -22 -4
-22 -10 0 -5 16 -10 35 -10 19 0 35 -4 35 -10 0 -14 20 -12 54 5 30 16 89 12
113 -7 7 -6 19 -5 31 3 16 10 34 10 79 2 32 -6 76 -8 98 -4 37 7 38 8 15 15
-14 5 -28 13 -31 18 -4 6 -37 16 -75 24 -38 8 -74 21 -80 29 -6 8 -17 15 -25
15 -12 0 -12 2 -1 9 11 7 10 10 -3 15 -26 10 -45 7 -42 -6z"/>
<path d="M2210 9926 c0 -9 40 -13 46 -5 3 5 -6 9 -20 9 -14 0 -26 -2 -26 -4z"/>
<path d="M3870 9912 c0 -6 15 -13 33 -15 29 -4 30 -5 10 -12 -13 -4 -23 -14
-23 -21 0 -20 -93 -18 -133 3 -23 12 -59 17 -132 18 -55 0 -134 4 -175 8 -113
11 -42 -9 87 -23 59 -7 133 -14 163 -15 55 -3 213 -33 280 -54 58 -18 68 -13
32 17 -35 29 -40 42 -18 42 7 0 16 9 19 19 2 11 15 21 28 24 13 2 4 4 -21 4
-25 0 -69 3 -97 8 -36 5 -53 4 -53 -3z"/>
<path d="M5540 9885 c7 -8 17 -15 22 -15 6 0 5 7 -2 15 -7 8 -17 15 -22 15 -6
0 -5 -7 2 -15z"/>
<path d="M4608 9883 c7 -3 16 -2 19 1 4 3 -2 6 -13 5 -11 0 -14 -3 -6 -6z"/>
<path d="M6390 9880 c0 -5 5 -10 11 -10 5 0 7 5 4 10 -3 6 -8 10 -11 10 -2 0
-4 -4 -4 -10z"/>
<path d="M2304 9859 c-3 -5 6 -9 20 -9 31 0 34 6 6 13 -11 3 -23 1 -26 -4z"/>
<path d="M3186 9861 c-3 -5 1 -11 9 -15 15 -6 29 7 18 18 -9 9 -21 8 -27 -3z"/>
<path d="M4549 9860 c-7 -5 -5 -9 6 -14 25 -9 77 -7 71 3 -8 12 -63 19 -77 11z"/>
<path d="M2027 9804 c3 -9 -2 -14 -13 -15 -19 0 91 -39 112 -39 7 0 14 9 17
20 4 15 0 20 -13 20 -10 0 -20 4 -22 9 -1 4 -22 10 -45 13 -33 5 -40 3 -36 -8z"/>
<path d="M5323 9813 c-13 -3 -23 -8 -23 -12 0 -12 123 -30 134 -20 16 14 -70
39 -111 32z"/>
<path d="M2468 9803 c6 -2 18 -2 25 0 6 3 1 5 -13 5 -14 0 -19 -2 -12 -5z"/>
<path d="M5858 9803 c6 -2 18 -2 25 0 6 3 1 5 -13 5 -14 0 -19 -2 -12 -5z"/>
<path d="M2708 9793 c7 -3 16 -2 19 1 4 3 -2 6 -13 5 -11 0 -14 -3 -6 -6z"/>
<path d="M4096 9792 c-4 -6 10 -13 34 -17 22 -4 46 -14 53 -24 20 -27 68 -43
152 -49 74 -5 79 -4 66 11 -12 15 -9 17 40 18 l54 1 -40 9 c-22 4 -63 8 -91 8
-70 1 -76 14 -12 27 l53 12 -70 1 c-38 1 -106 4 -151 7 -53 5 -83 3 -88 -4z"/>
<path d="M4893 9789 c11 -7 23 -7 35 0 14 9 11 10 -18 10 -29 0 -32 -1 -17
-10z"/>
<path d="M2330 9771 c0 -9 50 -21 84 -20 15 0 12 4 -14 14 -41 16 -70 18 -70
6z"/>
<path d="M2544 9766 c-25 -18 -111 -29 -209 -27 -57 1 -76 -1 -65 -9 8 -5 25
-10 38 -10 12 0 22 -4 22 -10 0 -5 -10 -10 -22 -10 -19 0 -20 -2 -8 -10 8 -5
30 -10 48 -10 26 0 33 -4 30 -17 -2 -11 -14 -19 -32 -21 -16 -2 -35 -10 -43
-17 -11 -12 -11 -16 4 -25 16 -10 16 -11 -2 -5 -46 16 -55 17 -55 5 0 -10 -18
-11 -77 -5 -43 5 -93 8 -111 8 -18 -1 -30 3 -27 8 7 11 -12 11 -40 0 -17 -7
-15 -9 15 -16 19 -4 44 -14 55 -21 14 -9 31 -11 51 -6 16 5 74 5 129 1 55 -4
142 -5 193 -3 76 3 92 1 92 -11 0 -10 11 -15 34 -15 77 0 89 -25 16 -35 -27
-4 -50 -10 -50 -15 0 -21 202 -73 234 -60 20 7 19 9 -9 20 -16 6 -44 12 -61
12 -17 0 -37 3 -43 8 -21 13 79 21 122 9 35 -9 125 -4 114 7 -2 3 -24 8 -48
13 -38 8 -32 9 48 10 81 1 92 3 86 17 -5 14 0 15 43 10 78 -11 136 21 69 37
-18 4 -18 5 3 6 30 1 28 21 -2 21 -13 0 -26 6 -29 13 -4 11 -42 21 -153 42
-18 3 -46 19 -65 36 -22 19 -44 30 -68 31 -20 0 -47 2 -61 2 -37 2 -120 27
-120 36 0 15 -28 18 -46 6z m71 -56 c-27 -12 -35 -12 -35 0 0 6 12 10 28 9 24
0 25 -1 7 -9z m105 -30 c12 -8 11 -10 -5 -9 -11 1 -33 5 -50 9 l-30 8 35 1
c19 0 42 -4 50 -9z m-30 -35 c52 -2 115 -8 140 -14 25 -6 62 -14 83 -18 56 -9
32 -22 -55 -29 -51 -5 -77 -3 -82 5 -4 6 -20 11 -36 11 -16 0 -31 4 -35 9 -3
5 -35 9 -72 8 -38 0 -68 4 -70 10 -2 5 -16 8 -31 6 -20 -3 -23 -2 -13 5 11 8
10 11 -5 15 -10 3 4 3 31 1 28 -3 93 -7 145 -9z m-3 -51 c-3 -3 -12 -4 -19 -1
-8 3 -5 6 6 6 11 1 17 -2 13 -5z m3 -59 c0 -8 -7 -15 -15 -15 -8 0 -15 7 -15
15 0 8 7 15 15 15 8 0 15 -7 15 -15z"/>
<path d="M5114 9768 c-3 -4 23 -8 58 -8 35 0 74 -3 88 -5 21 -5 22 -4 5 3 -27
13 -145 20 -151 10z"/>
<path d="M4856 9761 c-19 -7 -19 -8 2 -13 12 -4 22 -2 22 2 0 5 8 11 18 13 14
4 14 5 -3 5 -11 0 -29 -3 -39 -7z"/>
<path d="M5010 9729 c0 -20 -4 -21 -44 -16 -35 5 -47 3 -61 -13 -17 -19 -17
-20 1 -20 10 0 28 -7 38 -15 11 -8 30 -15 43 -15 20 0 22 3 13 19 -14 27 -14
28 21 35 25 5 29 9 20 19 -6 8 -8 17 -4 20 3 4 -1 7 -10 7 -11 0 -17 -8 -17
-21z"/>
<path d="M5073 9733 c9 -2 23 -2 30 0 6 3 -1 5 -18 5 -16 0 -22 -2 -12 -5z"/>
<path d="M5153 9723 c9 -2 23 -2 30 0 6 3 -1 5 -18 5 -16 0 -22 -2 -12 -5z"/>
<path d="M2110 9710 c-11 -7 -7 -10 18 -10 17 0 32 5 32 10 0 13 -30 13 -50 0z"/>
<path d="M3470 9707 c25 -8 71 -21 103 -30 31 -9 63 -19 70 -24 6 -4 38 -10
69 -13 45 -5 55 -3 46 7 -8 10 -5 13 13 14 21 1 20 2 -9 15 -18 8 -30 19 -27
24 4 6 -22 10 -67 10 -40 0 -111 2 -158 5 -84 5 -85 5 -40 -8z m250 -37 c12
-8 12 -10 -5 -9 -11 0 -29 4 -40 9 -18 8 -18 9 5 9 14 0 32 -4 40 -9z"/>
<path d="M1500 9706 c0 -9 30 -14 35 -6 4 6 -3 10 -14 10 -12 0 -21 -2 -21 -4z"/>
<path d="M5918 9703 c7 -3 16 -2 19 1 4 3 -2 6 -13 5 -11 0 -14 -3 -6 -6z"/>
<path d="M1634 9675 c-18 -14 -18 -14 8 -15 34 0 59 10 52 21 -8 14 -38 11
-60 -6z"/>
<path d="M3400 9660 c-9 -6 -10 -10 -3 -10 6 0 15 5 18 10 8 12 4 12 -15 0z"/>
<path d="M4480 9658 c90 -16 131 -28 125 -37 -2 -5 12 -12 33 -15 44 -8 95
-27 103 -38 3 -5 20 -5 37 -2 30 6 31 8 15 20 -17 12 -17 13 4 14 12 0 25 5
28 10 4 6 -7 10 -26 10 -18 0 -30 3 -27 6 3 3 24 5 47 6 23 0 44 4 46 9 3 4
-33 7 -81 7 -61 -1 -88 -5 -91 -15 -6 -15 -50 -18 -55 -4 -4 11 -146 42 -185
40 -17 -1 -6 -6 27 -11z"/>
<path d="M5805 9640 c3 -5 11 -10 16 -10 6 0 7 5 4 10 -3 6 -11 10 -16 10 -6
0 -7 -4 -4 -10z"/>
<path d="M5665 9630 c28 -12 47 -12 40 0 -3 6 -18 10 -33 9 -24 0 -25 -1 -7
-9z"/>
<path d="M5868 9633 c6 -2 18 -2 25 0 6 3 1 5 -13 5 -14 0 -19 -2 -12 -5z"/>
<path d="M5129 9619 c-10 -6 -7 -9 14 -9 29 0 35 5 14 13 -8 3 -20 1 -28 -4z"/>
<path d="M3366 9605 c-4 -11 -22 -15 -76 -15 -43 0 -69 -4 -65 -10 5 -8 66 -8
179 -1 18 1 18 2 1 21 -22 24 -31 25 -39 5z"/>
<path d="M3618 9593 c7 -3 16 -2 19 1 4 3 -2 6 -13 5 -11 0 -14 -3 -6 -6z"/>
<path d="M5395 9580 l-40 -7 40 -1 c22 0 49 3 60 8 l20 9 -20 -1 c-11 -1 -38
-4 -60 -8z"/>
<path d="M5274 9560 c0 -13 4 -16 10 -10 7 7 7 13 0 20 -6 6 -10 3 -10 -10z"/>
<path d="M3516 9557 c8 -22 144 -51 174 -39 19 8 20 11 7 11 -10 1 -16 5 -13
9 7 11 -83 32 -134 32 -29 0 -38 -4 -34 -13z"/>
<path d="M4578 9563 c6 -2 18 -2 25 0 6 3 1 5 -13 5 -14 0 -19 -2 -12 -5z"/>
<path d="M4717 9548 c4 -8 -8 -9 -35 -5 -23 3 -42 1 -42 -4 0 -5 6 -9 14 -9 8
0 21 -7 29 -15 8 -7 28 -17 43 -20 20 -5 25 -4 15 3 -16 12 -7 17 44 27 46 8
33 19 -33 28 -28 3 -40 2 -35 -5z"/>
<path d="M2064 9538 c-3 -5 -17 -7 -30 -4 -18 5 -22 3 -18 -9 4 -8 1 -15 -7
-15 -7 0 -9 -3 -6 -7 16 -15 157 -9 157 7 0 16 -87 42 -96 28z"/>
<path d="M3148 9533 c6 -2 18 -2 25 0 6 3 1 5 -13 5 -14 0 -19 -2 -12 -5z"/>
<path d="M3031 9511 c-25 -16 6 -20 119 -12 39 3 41 4 20 11 -34 11 -122 12
-139 1z"/>
<path d="M2305 9490 c3 -5 10 -10 16 -10 5 0 9 5 9 10 0 6 -7 10 -16 10 -8 0
-12 -4 -9 -10z"/>
<path d="M5525 9490 c27 -12 35 -12 35 0 0 6 -12 10 -27 9 -25 0 -26 -1 -8 -9z"/>
<path d="M4405 9480 c3 -5 16 -10 28 -10 18 0 19 2 7 10 -20 13 -43 13 -35 0z"/>
<path d="M4320 9469 c0 -5 5 -7 10 -4 6 3 10 8 10 11 0 2 -4 4 -10 4 -5 0 -10
-5 -10 -11z"/>
<path d="M5620 9472 c0 -6 17 -14 38 -17 20 -3 61 -10 91 -15 30 -6 64 -9 75
-9 12 1 -1 6 -29 11 -27 5 -54 13 -60 18 -17 14 -115 24 -115 12z"/>
<path d="M2315 9462 c-11 -2 -26 -11 -32 -20 -7 -8 -16 -13 -19 -9 -4 4 -13 2
-20 -4 -9 -7 -19 -7 -32 0 -11 6 -48 8 -89 4 -47 -4 -77 -1 -94 7 -20 10 -22
10 -11 -1 17 -19 15 -26 -10 -33 -18 -5 -20 -8 -9 -15 7 -5 11 -13 7 -19 -3
-6 11 -13 36 -17 24 -4 46 -12 50 -18 3 -5 54 -11 115 -12 68 -1 93 0 68 5
l-40 7 37 2 c20 0 39 -3 42 -7 3 -5 19 -7 37 -4 22 3 30 1 25 -7 -7 -10 31
-17 59 -11 6 1 33 2 60 1 70 -2 108 8 101 25 -5 12 17 20 46 15 4 0 2 10 -4
24 -6 14 -18 25 -27 26 -10 0 -12 2 -3 6 26 10 10 23 -30 23 -24 0 -59 4 -78
10 -49 13 -161 26 -185 22z m30 -42 c-3 -5 -21 -10 -38 -10 -24 0 -28 3 -17
10 20 13 63 13 55 0z m45 -20 c8 -5 11 -10 5 -10 -5 0 -17 5 -25 10 -8 5 -10
10 -5 10 6 0 17 -5 25 -10z"/>
<path d="M3020 9450 c0 -6 25 -10 61 -9 36 1 55 5 47 10 -19 12 -108 11 -108
-1z"/>
<path d="M3428 9443 c12 -2 30 -2 40 0 9 3 -1 5 -23 4 -22 0 -30 -2 -17 -4z"/>
<path d="M2840 9429 c-49 -8 -21 -16 77 -23 86 -6 112 4 65 23 -28 12 -73 12
-142 0z"/>
<path d="M3235 9430 c19 -8 133 -14 124 -6 -2 2 -35 6 -74 9 -42 3 -62 2 -50
-3z"/>
<path d="M3680 9430 c0 -5 -9 -10 -19 -10 -11 0 -23 -4 -26 -10 -10 -16 27
-11 65 10 l35 19 -27 1 c-16 0 -28 -4 -28 -10z"/>
<path d="M2728 9393 c7 -3 16 -2 19 1 4 3 -2 6 -13 5 -11 0 -14 -3 -6 -6z"/>
<path d="M2878 9368 c17 -8 26 -8 34 0 9 9 4 12 -22 11 -33 0 -34 -1 -12 -11z"/>
<path d="M3300 9367 c0 -14 58 -43 79 -38 8 1 17 -3 22 -10 9 -15 129 -26 129
-11 0 5 -16 13 -35 16 -20 4 -33 11 -30 15 6 11 -79 24 -105 16 -15 -5 -18 -3
-14 9 5 12 0 16 -20 16 -14 0 -26 -6 -26 -13z"/>
<path d="M2765 9326 c28 -8 52 -12 54 -10 8 8 -5 12 -54 18 l-50 6 50 -14z"/>
<path d="M2130 9279 c-30 -11 -66 -24 -80 -30 -23 -10 -23 -11 -6 -21 10 -6
55 -12 100 -15 105 -6 121 -5 169 8 48 13 39 28 -22 36 -34 5 -45 2 -56 -13
-10 -15 -16 -16 -26 -7 -12 12 -6 44 8 42 19 -3 33 2 33 11 0 15 -58 10 -120
-11z"/>
<path d="M2300 9280 c0 -9 70 -24 78 -16 8 9 0 13 -40 19 -21 3 -38 2 -38 -3z"/>
<path d="M3430 9272 c0 -15 35 -21 72 -12 l33 8 -30 1 c-16 1 -40 4 -52 7 -13
4 -23 2 -23 -4z"/>
<path d="M3410 9240 c-22 -7 -21 -8 13 -9 20 -1 37 4 37 9 0 11 -14 11 -50 0z"/>
<path d="M2393 9193 c9 -2 23 -2 30 0 6 3 -1 5 -18 5 -16 0 -22 -2 -12 -5z"/>
<path d="M3080 9140 c0 -5 9 -10 20 -10 11 0 20 5 20 10 0 6 -9 10 -20 10 -11
0 -20 -4 -20 -10z"/>
<path d="M3376 9121 c-3 -5 1 -12 10 -15 20 -8 29 -1 19 13 -8 13 -22 14 -29
2z"/>
<path d="M65 2120 c-8 -13 25 -13 45 0 12 8 9 10 -12 10 -15 0 -30 -4 -33 -10z"/>
</g>
</svg>
